<svg xmlns="http://www.w3.org/2000/svg" width="146.25" height="130" viewBox="0 0 146.25 130"><defs><style>.a{fill:#009040;}</style></defs><path class="a" d="M70.489-90.363,2.854-113.232A8.114,8.114,0,0,0,0-113.75a8.114,8.114,0,0,0-2.854.518L-70.489-90.363a4.365,4.365,0,0,0-2.636,3.8v9.372a4.061,4.061,0,0,0,4.063,4.063H69.063a4.061,4.061,0,0,0,4.063-4.062v-9.372A4.062,4.062,0,0,0,70.489-90.363ZM65-81.25H-65v-2.392L0-105.625,65-83.647ZM71.094,8.125H65V-8.125c0-4.487-4.156-8.125-9.285-8.125h-2.9V-65H44.688v48.75H20.313V-65H12.188v48.75H-12.187V-65h-8.125v48.75H-44.687V-65h-8.125v48.75h-2.9C-60.844-16.25-65-12.612-65-8.125V8.125h-6.094a2.031,2.031,0,0,0-2.031,2.031v4.063a2.031,2.031,0,0,0,2.031,2.031H71.094a2.031,2.031,0,0,0,2.031-2.031V10.156A2.031,2.031,0,0,0,71.094,8.125Zm-14.219,0H-56.875V-7.8a1.952,1.952,0,0,1,1.16-.325H55.715a1.946,1.946,0,0,1,1.16.325Z" transform="translate(73.125 113.75)"/></svg>