<svg xmlns="http://www.w3.org/2000/svg" width="162.5" height="130" viewBox="0 0 162.5 130"><defs><style>.a{fill:#0066ab;}</style></defs><path class="a" d="M49.156-62.258l-4.875-6.5L32.094-59.617l4.875,6.5ZM65-65a16.147,16.147,0,0,0,9.09-2.768,16.43,16.43,0,0,0,4.393-4.393,16.147,16.147,0,0,0,2.768-9.09,16.147,16.147,0,0,0-2.768-9.09,16.389,16.389,0,0,0-1.98-2.412,16.389,16.389,0,0,0-2.412-1.98A16.147,16.147,0,0,0,65-97.5a16.147,16.147,0,0,0-9.09,2.768,16.43,16.43,0,0,0-4.393,4.393,16.147,16.147,0,0,0-2.768,9.09A16.265,16.265,0,0,0,65-65Zm0-24.375a8.149,8.149,0,0,1,8.125,8.125A8.149,8.149,0,0,1,65-73.125a8.149,8.149,0,0,1-8.125-8.125A8.149,8.149,0,0,1,65-89.375ZM-55.91-50.045A16.147,16.147,0,0,0-65-52.812a16.147,16.147,0,0,0-9.09,2.768,16.429,16.429,0,0,0-4.393,4.393,16.147,16.147,0,0,0-2.768,9.09A16.265,16.265,0,0,0-65-20.312a16.265,16.265,0,0,0,16.25-16.25,16.147,16.147,0,0,0-2.768-9.09A16.429,16.429,0,0,0-55.91-50.045ZM-65-28.437a8.149,8.149,0,0,1-8.125-8.125A8.149,8.149,0,0,1-65-44.687a8.149,8.149,0,0,1,8.125,8.125A8.149,8.149,0,0,1-65-28.437ZM-42.656-32.5h12.188v-8.125H-42.656ZM76.5-11.5a16.389,16.389,0,0,0-2.412-1.98A16.147,16.147,0,0,0,65-16.25a16.147,16.147,0,0,0-9.09,2.768,15.1,15.1,0,0,0-2.311,1.9L30.291-25.568A28.327,28.327,0,0,0,32.5-36.562,28.423,28.423,0,0,0,4.063-65a29,29,0,0,0-8.176,1.32l-9.978-21.354A16.034,16.034,0,0,0-8.125-97.5a16.147,16.147,0,0,0-2.768-9.09,16.429,16.429,0,0,0-4.393-4.393,16.147,16.147,0,0,0-9.09-2.768,16.147,16.147,0,0,0-9.09,2.768,16.429,16.429,0,0,0-4.393,4.393,16.147,16.147,0,0,0-2.768,9.09,16.265,16.265,0,0,0,16.25,16.25,16.363,16.363,0,0,0,2.971-.3l9.9,21.227A28.373,28.373,0,0,0-24.375-36.562,28.423,28.423,0,0,0,4.063-8.125,28.311,28.311,0,0,0,26-18.662L49.461-4.6A16.229,16.229,0,0,0,48.775,0a16.265,16.265,0,0,0,16.25,16.25,16.147,16.147,0,0,0,9.09-2.768A16.433,16.433,0,0,0,78.508,9.09,16.327,16.327,0,0,0,81.25,0a16.147,16.147,0,0,0-2.768-9.09A18.188,18.188,0,0,0,76.5-11.5ZM-24.375-89.375A8.149,8.149,0,0,1-32.5-97.5a8.149,8.149,0,0,1,8.125-8.125A8.149,8.149,0,0,1-16.25-97.5,8.149,8.149,0,0,1-24.375-89.375ZM4.063-16.25A20.34,20.34,0,0,1-16.25-36.562,20.34,20.34,0,0,1,4.063-56.875,20.34,20.34,0,0,1,24.375-36.562,20.34,20.34,0,0,1,4.063-16.25ZM65,8.125A8.149,8.149,0,0,1,56.875,0a8.125,8.125,0,0,1,16.25,0A8.149,8.149,0,0,1,65,8.125Z" transform="translate(81.25 113.75)"/></svg>