<svg xmlns="http://www.w3.org/2000/svg" width="130" height="130" viewBox="0 0 130 130"><defs><style>.a{fill:#c82027;}</style></defs><path class="a" d="M28.452-91.4h0A14.223,14.223,0,0,0,14.234-77.181,14.223,14.223,0,0,0,28.452-62.964,14.223,14.223,0,0,0,42.669-77.181h0A14.231,14.231,0,0,0,28.452-91.4Zm0,20.311h0a6.1,6.1,0,0,1-6.093-6.093,6.1,6.1,0,0,1,6.093-6.093,6.1,6.1,0,0,1,6.093,6.093A6.1,6.1,0,0,1,28.452-71.088Zm34.812-37.763a4.606,4.606,0,0,0-3.16-3.157c-8.147-1.742-14.531-1.742-20.888-1.742-26.2,0-41.912,14.015-53.641,32.5h-26.45a13.367,13.367,0,0,0-10.887,6.728L-64.306-49.442a8.6,8.6,0,0,0-.639,2.718,6.1,6.1,0,0,0,6.093,6.093h26.386A24.381,24.381,0,0,1-8.094-16.259h0v26.4A6.1,6.1,0,0,0-2,16.238,8.639,8.639,0,0,0,.716,15.6L25.78,3.056A13.358,13.358,0,0,0,32.5-7.821V-34.336C50.926-46.094,65-61.859,65-87.929,65.019-94.315,65.019-100.7,63.265-108.851ZM-55.566-48.756-44.5-70.892a5.665,5.665,0,0,1,3.621-2.237h21.6C-22.811-66-27.325-56.88-31.347-48.756l.017.115C-31.716-48.654-49.507-48.756-55.566-48.756ZM24.376-7.821a5.654,5.654,0,0,1-2.232,3.612L.029,6.858c0-6.069-.1-23.883-.117-24.276l.093.012c8.124-4.018,17.216-8.529,24.339-12.071h.032Zm-25.918-17.9C-4.329-34.8-13.956-44.415-23.031-47.194-9.821-73.6,2.3-105.626,39.216-105.626a91.222,91.222,0,0,1,16.611,1.063,88.361,88.361,0,0,1,1.045,16.633C56.872-51.12,24.631-38.808-1.542-25.725Zm-37.45-6.783c-12.208,0-25.493,9.991-25.966,40.632H-65V16.25h8.125v-.059C-13.3,15.343-9.931-13.014-22.9-26.051A23.222,23.222,0,0,0-38.991-32.507ZM-25.556-4.73C-28.815,3.178-40.191,7.82-56.88,8.1c.016-.9-.284-32.472,17.888-32.472a15.252,15.252,0,0,1,10.362,4.072A15.094,15.094,0,0,1-25.556-4.73Z" transform="translate(65 113.75)"/></svg>