<svg xmlns="http://www.w3.org/2000/svg" width="162.5" height="130" viewBox="0 0 162.5 130"><defs><style>.a{fill:#00aeef;}</style></defs><path class="a" d="M73.125-81.25H24.375a8.128,8.128,0,0,0-8.125,8.125V8.125a8.128,8.128,0,0,0,8.125,8.125h48.75A8.128,8.128,0,0,0,81.25,8.125v-81.25A8.128,8.128,0,0,0,73.125-81.25Zm0,89.375H24.375v-81.25h48.75Zm-130-113.75h97.5v16.25H48.75v-16.25a8.128,8.128,0,0,0-8.125-8.125h-97.5A8.128,8.128,0,0,0-65-105.625v65H-77.187a4.064,4.064,0,0,0-4.062,4.063V-32.5A16.311,16.311,0,0,0-65.023-16.25H8.125v-8.125H-65.023a8.133,8.133,0,0,1-8.1-8.125H8.125v-8.125h-65Z" transform="translate(81.25 113.75)"/></svg>