<?xml version="1.0" encoding="utf-8"?>
<!-- Generator: Adobe Illustrator 24.0.1, SVG Export Plug-In . SVG Version: 6.00 Build 0)  -->
<svg version="1.1" id="Layer_1" xmlns="http://www.w3.org/2000/svg" xmlns:xlink="http://www.w3.org/1999/xlink" x="0px" y="0px"
	 viewBox="0 0 2073 1199.2" style="enable-background:new 0 0 2073 1199.2;" xml:space="preserve">
<style type="text/css">
	.st0{fill:#FFBE55;}
	.st1{opacity:0.3;fill:#2C93F7;enable-background:new    ;}
	.st2{fill:#28B9E4;}
	.st3{fill:#CCE9FF;}
	.st4{fill:#F3F3F3;}
	.st5{fill:#FEBE56;}
	.st6{opacity:0.25;fill:#FFD05D;enable-background:new    ;}
	.st7{fill:#1C2A58;}
	.st8{opacity:0.35;fill:#1C2A58;enable-background:new    ;}
	.st9{fill:#ECEFF1;}
	.st10{opacity:0.34;}
	.st11{opacity:0.58;}
	.st12{opacity:0.33;}
	.st13{fill:#221D51;}
	.st14{opacity:0.35;fill:#2993F2;enable-background:new    ;}
	.st15{fill:#1A8199;}
	.st16{opacity:0.24;fill:#2993F2;enable-background:new    ;}
	.st17{fill:#FFFFFF;}
	.st18{fill:none;}
</style>
<path class="st0" d="M1880.5,1100.6c-61.8-473.6-418.3-836.9-849-836.9s-787.2,363.3-849,836.9H1880.5z"/>
<path class="st1" d="M1737.6,1069.6c-64-379.9-355.8-666.9-706.1-666.9s-642.2,287-706.1,666.9H1737.6z"/>
<path class="st2" d="M1521.4,1025.6C1461.6,780.1,1264.9,600,1031.5,600s-430,180.1-489.9,425.6H1521.4z"/>
<g>
	<ellipse class="st3" cx="860.4" cy="1018.1" rx="95" ry="108.8"/>
	<ellipse class="st3" cx="1220.9" cy="1040.8" rx="95" ry="108.8"/>
	<ellipse class="st3" cx="1494.5" cy="929.2" rx="133.5" ry="152.9"/>
	<ellipse class="st3" cx="571" cy="867.3" rx="114.2" ry="130.8"/>
	<ellipse class="st3" cx="936.9" cy="1142.7" rx="76.9" ry="88.1"/>
	<ellipse class="st3" cx="1316.7" cy="939.4" rx="89.9" ry="102.9"/>
	<ellipse class="st3" cx="1639" cy="901" rx="90.9" ry="104.1"/>
	<ellipse class="st3" cx="419.7" cy="886.8" rx="86.5" ry="99.1"/>
	<ellipse class="st3" cx="1074" cy="1056.4" rx="100.8" ry="115.5"/>
	<ellipse class="st3" cx="713.8" cy="923.7" rx="96.6" ry="110.7"/>
</g>
<g>
	<ellipse class="st4" cx="693.5" cy="1035.8" rx="131.9" ry="151.1"/>
	<ellipse class="st4" cx="1293.5" cy="1058.8" rx="149" ry="170.7"/>
	<ellipse class="st4" cx="1609.9" cy="1111.2" rx="158.6" ry="181.7"/>
	<ellipse class="st4" cx="336.6" cy="1023.1" rx="158.6" ry="181.7"/>
	<ellipse class="st4" cx="865.3" cy="1208.4" rx="122.7" ry="140.5"/>
	<ellipse class="st4" cx="1534.2" cy="986" rx="124.8" ry="143"/>
	<ellipse class="st4" cx="1739.7" cy="1023.1" rx="145.3" ry="166.4"/>
	<ellipse class="st4" cx="1044.3" cy="1167.2" rx="140" ry="160.4"/>
	<ellipse class="st4" cx="513.7" cy="968.9" rx="129" ry="147.8"/>
</g>
<polygon class="st5" points="1222.8,1074.2 1088.4,1074.2 1125.2,666.5 1179.3,666.5 "/>
<polygon class="st5" points="1100.4,1074.2 965.4,1074.2 1002.2,666.5 1056.2,666.5 "/>
<polygon class="st5" points="975.4,1074.2 841,1074.2 877.9,666.5 931.9,666.5 "/>
<polygon class="st6" points="905,931.2 880.6,694.6 928.4,694.6 "/>
<polygon class="st6" points="1033.3,1065.1 1004.6,675.6 1058.7,675.6 "/>
<polygon class="st6" points="1156.4,933.6 1125.7,666.5 1179.7,666.5 "/>
<g>
	<polygon class="st7" points="1084.3,670 982.9,670 988,614.3 1079.2,614.3 	"/>
	<polygon class="st8" points="1075.8,670 1050.5,670 1052.2,614.3 1070.7,614.3 	"/>
	<rect x="976.4" y="666.5" class="st7" width="113.3" height="11.1"/>
</g>
<path class="st9" d="M1034,135.9h-0.6c-0.2,0.2-0.5,0.3-0.7,0.5c-0.2-0.2-0.5-0.3-0.7-0.5h-0.6c-69,50.6-122,188.8-122,269.1v100.1
	h0.1c2.2,75.9,56.5,136.6,123.3,136.6s121.1-60.7,123.3-136.6h0.1V405C1156,324.7,1103,186.5,1034,135.9z"/>
<path class="st2" d="M1032.7,324.2c38.5,0,74.5-7.4,104.9-20.3c-21.3-66.4-59.1-135.5-103.6-168h-0.6c-0.2,0.2-0.5,0.3-0.7,0.5
	c-0.2-0.2-0.5-0.3-0.7-0.5h-0.6c-44.5,32.6-82.3,101.6-103.6,168C958.2,316.8,994.1,324.2,1032.7,324.2z"/>
<path class="st9" d="M1039.4,140.1c39.5,81.1,64.6,178.1,64.6,245.4v137.4h-0.1c-1.1,41.9-13,80.5-32.3,111.6
	c47.8-18.2,82.6-69,84.3-129.4h0.1V405C1156,326.8,1105.8,193.7,1039.4,140.1z"/>
<g class="st10">
	<path class="st9" d="M974.4,542.2L974.4,542.2l-0.1-136c0-74,24.4-184.2,61.6-268.9c-0.6-0.5-1.3-1-1.9-1.4h-0.6
		c-0.2,0.2-0.5,0.3-0.7,0.5c-0.2-0.2-0.5-0.3-0.7-0.5h-0.6c-6.8,5-13.5,10.9-19.9,17.4C966,225.8,935,333.8,935,403.4v113.3h0.1
		c1,40.3,13.5,76.8,33.4,104.3c7.3,5.1,15,9.4,23.2,12.7C981.3,606.7,975.1,575.5,974.4,542.2z"/>
</g>
<g>
	<ellipse class="st7" cx="1032.7" cy="427.5" rx="64.5" ry="73.9"/>
</g>
<g class="st11">
	<path class="st9" d="M1036,381.8c-2.4,0.2-4.8,0.7-7.2,1.3c-2.3,0.6-4.6,1.4-6.8,2.4c-4.4,1.9-8.6,4.5-12.1,7.7
		c-1.8,1.6-3.5,3.3-5,5.2c-0.8,0.9-1.5,1.9-2.2,2.9l-1,1.5c-0.3,0.5-0.7,1-1,1.5l-0.9,1.6c-0.3,0.5-0.6,1.1-0.8,1.6
		c-0.6,1.1-1.1,2.2-1.6,3.3s-0.9,2.2-1.4,3.4l-1.2,3.4c0.3-1.2,0.5-2.4,0.9-3.6c0.4-1.2,0.7-2.4,1.1-3.5s0.9-2.3,1.4-3.4
		c0.3-0.6,0.5-1.1,0.8-1.7l0.9-1.6c1.2-2.2,2.5-4.2,4.1-6.2c1.5-1.9,3.2-3.7,5.1-5.4c3.7-3.3,8-5.9,12.6-7.6
		C1026.2,382.8,1031.1,381.7,1036,381.8z"/>
</g>
<g class="st12">
	<path class="st13" d="M1071.8,400.1c5.3,12,6.7,25.8,3.6,38.8c-1.5,6.5-4.2,12.7-7.9,18.3c-3.8,5.6-8.7,10.4-14.5,13.9
		s-12.5,5.5-19.3,5.7s-13.5-1.3-19.5-4.4c-6-3-11.3-7.3-15.5-12.4c-4.2-5.1-7.4-11-9.6-17.2c2.7,6,6.2,11.6,10.6,16.3
		c4.4,4.8,9.6,8.7,15.4,11.4s12.2,4,18.5,3.7s12.5-2.2,18-5.5c5.5-3.2,10.1-7.8,13.7-13c3.7-5.2,6.3-11.2,8-17.4s2.4-12.7,2.1-19.2
		C1075.2,412.7,1073.9,406.3,1071.8,400.1z"/>
</g>
<path class="st7" d="M955.4,694.9H867V552c0-28,19.8-50.6,44.2-50.6l0,0c24.4,0,44.2,22.7,44.2,50.6L955.4,694.9L955.4,694.9z"/>
<path class="st14" d="M916.2,501.6c5,8.2,8,18.2,8,29v163h25.5V550.7C949.7,527,935.4,507.1,916.2,501.6z"/>
<rect x="858.4" y="684.1" class="st15" width="104.6" height="10.8"/>
<rect x="915.1" y="684.1" class="st16" width="47.3" height="10.8"/>
<g>
	<path class="st9" d="M895.4,514.8c-0.4,0.2-0.8,0.5-1.1,0.9l-0.5,0.5l-0.5,0.5c-0.7,0.7-1.2,1.5-1.8,2.3c-0.6,0.8-1,1.6-1.5,2.5
		c-0.5,0.8-0.8,1.7-1.3,2.6c-0.2,0.4-0.4,0.9-0.6,1.3l-0.5,1.3l-1,2.7c-0.5,1.8-1.1,3.7-1.6,5.5c-2,7.4-3.1,15-3.9,22.6
		s-1.3,15.3-1.5,23c-0.3,7.7-0.2,15.4-0.3,23.1c-0.2-3.8-0.4-7.7-0.6-11.5l-0.1-2.9v-2.9v-5.8c-0.1-3.9,0.2-7.7,0.3-11.6l0.1-2.9
		c0-1,0.2-1.9,0.2-2.9l0.5-5.8c0.1-1.9,0.5-3.8,0.8-5.7l0.4-2.9c0.1-1,0.3-1.9,0.5-2.9l1.1-5.7c0.5-1.9,1-3.7,1.5-5.6
		c0.6-1.9,1.2-3.7,1.8-5.5l1.1-2.7l0.6-1.3c0.2-0.4,0.4-0.9,0.7-1.3c0.5-0.8,0.9-1.7,1.4-2.5s1-1.6,1.6-2.4
		C892.4,517.2,893.7,515.7,895.4,514.8z"/>
</g>
<path class="st7" d="M1200.8,694.9h-88.4V552c0-28,19.8-50.6,44.2-50.6l0,0c24.4,0,44.2,22.7,44.2,50.6L1200.8,694.9L1200.8,694.9z"
	/>
<path class="st14" d="M1161.6,501.6c5,8.2,8,18.2,8,29v163h25.5V550.7C1195,527,1180.8,507.1,1161.6,501.6z"/>
<rect x="1103.7" y="684.1" class="st15" width="104.6" height="10.8"/>
<rect x="1160.4" y="684.1" class="st16" width="47.3" height="10.8"/>
<g>
	<path class="st9" d="M1140.8,514.8c-0.4,0.2-0.8,0.5-1.1,0.9l-0.5,0.5l-0.5,0.5c-0.7,0.7-1.2,1.5-1.8,2.3c-0.6,0.8-1,1.6-1.5,2.5
		c-0.5,0.8-0.8,1.7-1.3,2.6c-0.2,0.4-0.4,0.9-0.6,1.3l-0.5,1.3l-1,2.7c-0.5,1.8-1.1,3.7-1.6,5.5c-2,7.4-3.1,15-3.9,22.6
		s-1.3,15.3-1.5,23c-0.3,7.7-0.2,15.4-0.3,23.1c-0.2-3.8-0.4-7.7-0.6-11.5l-0.1-2.9v-2.9v-5.8c-0.1-3.9,0.2-7.7,0.3-11.6l0.1-2.9
		c0-1,0.2-1.9,0.2-2.9l0.5-5.8c0.1-1.9,0.5-3.8,0.8-5.7l0.4-2.9c0.1-1,0.3-1.9,0.5-2.9l1.1-5.7c0.5-1.9,1-3.7,1.5-5.6
		c0.6-1.9,1.2-3.7,1.8-5.5l1.1-2.7l0.6-1.3c0.2-0.4,0.4-0.9,0.7-1.3c0.5-0.8,0.9-1.7,1.4-2.5s1-1.6,1.6-2.4
		C1137.7,517.2,1139.1,515.7,1140.8,514.8z"/>
</g>
<g>
	<ellipse class="st17" cx="694" cy="1192.8" rx="126.7" ry="145.1"/>
	<ellipse class="st17" cx="1295.5" cy="1100.5" rx="126.7" ry="145.1"/>
	<ellipse class="st17" cx="1646.3" cy="1157.5" rx="152.3" ry="174.5"/>
	<ellipse class="st17" cx="413.8" cy="1143.4" rx="152.3" ry="174.5"/>
	<ellipse class="st17" cx="890.5" cy="1162.4" rx="140.3" ry="160.7"/>
	<ellipse class="st17" cx="1448.7" cy="1165.6" rx="119.9" ry="137.3"/>
	<ellipse class="st17" cx="1853.7" cy="1088.6" rx="161.6" ry="185.1"/>
	<ellipse class="st17" cx="201" cy="1074.2" rx="153.3" ry="175.6"/>
	<ellipse class="st17" cx="1102.6" cy="1226.3" rx="181.2" ry="207.5"/>
	<ellipse class="st17" cx="590.2" cy="1052" rx="103.8" ry="118.9"/>
</g>
<path class="st18" d="M1876.3,1113.6c8.1-53,12.3-107.5,12.3-163.1c0-522-369.4-945.2-825.1-945.2S238.4,428.5,238.4,950.5
	c0,55.6,4.2,110.1,12.3,163.1H1876.3z"/>
<path class="st2" d="M136.9,766.2c0,16.3-13.3,29.6-29.6,29.6c-16.3,0-29.6-13.2-29.6-29.6c0-16.3,13.2-29.6,29.6-29.6
	C123.6,736.6,136.9,749.9,136.9,766.2"/>
<path class="st2" d="M1978.3,764.5c0,32.7-26.5,59.2-59.2,59.2c-32.7,0-59.2-26.5-59.2-59.2c0-32.7,26.5-59.2,59.2-59.2
	C1951.9,705.4,1978.3,731.9,1978.3,764.5"/>
<path class="st2" d="M1346.8,126.2c0,8.4-6.8,15.2-15.2,15.2s-15.2-6.8-15.2-15.2c0-8.4,6.8-15.2,15.2-15.2
	S1346.8,117.8,1346.8,126.2"/>
<path class="st7" d="M1766.7,295.4c0,17.5-14.2,31.6-31.6,31.6s-31.6-14.1-31.6-31.6c0-17.5,14.2-31.6,31.6-31.6
	S1766.7,277.9,1766.7,295.4"/>
<path class="st7" d="M539.5,312.2c0,16.8-13.6,30.4-30.4,30.4c-16.8,0-30.4-13.6-30.4-30.4c0-16.8,13.6-30.4,30.4-30.4
	C525.8,281.7,539.5,295.4,539.5,312.2"/>
</svg>
