<?xml version="1.0" encoding="utf-8"?>
<!-- Generator: Adobe Illustrator 24.0.1, SVG Export Plug-In . SVG Version: 6.00 Build 0)  -->
<svg version="1.1" id="Layer_1" xmlns="http://www.w3.org/2000/svg" xmlns:xlink="http://www.w3.org/1999/xlink" x="0px" y="0px"
	 viewBox="0 0 2073 1199.2" style="enable-background:new 0 0 2073 1199.2;" xml:space="preserve">
<style type="text/css">
	.st0{fill:#FFBE55;}
	.st1{fill:#1C2A58;}
	.st2{fill:#28B9E4;}
</style>
<g>
	<path class="st0" d="M883.2,858.7c-65.8-29.4-108.3-94.3-108.3-165.3V337.3c52.6-25.7,95.5-68.2,121.5-120.4H1178
		c26,52.2,68.9,94.7,121.5,120.4v356.1c0,71-42.5,135.9-108.3,165.3l-154,68.8L883.2,858.7z"/>
</g>
<g>
	<path class="st1" d="M1415.9,228.2c-71.4,0-129.4-57.3-129.4-127.8c0-10.7-8.7-19.4-19.4-19.4H807.3c-10.7,0-19.4,8.7-19.4,19.4
		c0,70.5-58.1,127.8-129.4,127.8c-10.7,0-19.4,8.7-19.4,19.4v445.7c0,124.5,74.1,238.1,188.7,289.3l201.5,90.1
		c2.5,1.1,5.2,1.7,7.9,1.7c2.7,0,5.4-0.6,7.9-1.7l201.5-90.1c114.6-51.2,188.7-164.8,188.7-289.3V247.6
		C1435.3,236.9,1426.6,228.2,1415.9,228.2L1415.9,228.2z M1396.5,693.3c0,109.2-65.1,208.9-165.7,253.9l-193.6,86.5l-193.6-86.5
		c-100.7-45-165.7-144.7-165.7-253.9V265.9c77.2-8.8,138.7-69.6,147.7-146.1h423.3c9,76.4,70.5,137.3,147.7,146.1L1396.5,693.3
		L1396.5,693.3z"/>
	<path class="st2" d="M1150.2,496.4h-13.9v-31c0-54.7-44.5-99.2-99.2-99.2S938,410.7,938,465.4v31h-13.9c-10.7,0-19.4,8.7-19.4,19.4
		v206.9c0,10.7,8.7,19.4,19.4,19.4h226.1c10.7,0,19.4-8.7,19.4-19.4V515.8C1169.6,505.1,1160.9,496.4,1150.2,496.4L1150.2,496.4z
		 M976.8,465.4c0-33.3,27.1-60.4,60.4-60.4c33.3,0,60.4,27.1,60.4,60.4v31H976.8L976.8,465.4L976.8,465.4z M1130.8,703.3H943.6
		V535.2h187.3V703.3z"/>
	<path class="st2" d="M1053.8,588.6h-33.3c-10.7,0-19.4,8.7-19.4,19.4c0,9.8,7.2,17.8,16.6,19.2v3.3c0,10.7,8.7,19.4,19.4,19.4
		s19.4-8.7,19.4-19.4v-3.3c9.4-1.3,16.6-9.4,16.6-19.2C1073.2,597.3,1064.5,588.6,1053.8,588.6z"/>
</g>
</svg>
