<svg xmlns="http://www.w3.org/2000/svg" width="101.542" height="116.249" viewBox="0 0 101.542 116.249">
  <g id="Group_40" data-name="Group 40" transform="translate(251.539 -88.046)">
    <path id="Path_149" data-name="Path 149" d="M-199.815,88.046q2,.27,4.005.539a36.022,36.022,0,0,1,21.624,10.969,35.562,35.562,0,0,1,10.057,21.592,74.024,74.024,0,0,1-.146,9.376c-.019.706-.517.815-1.117.8-1.2-.023-2.4-.006-3.73-.006.141-1.053.265-2.232.465-3.4.168-.978-.122-1.374-1.171-1.362-3.785.04-7.57.028-11.355-.008-.9-.008-1.217.261-1.281,1.218a44.921,44.921,0,0,1-3.275,14.289c-.36.871-.135,1.152.661,1.486,2.054.861,4.063,1.829,6.091,2.752a1.938,1.938,0,0,1,1.211,1.61,31.345,31.345,0,0,0,1.044,4.05,1.153,1.153,0,0,1-.455,1.442,35.773,35.773,0,0,1-19.784,8.308,36.113,36.113,0,0,1-26.271-7.527,1.521,1.521,0,0,1-.561-1.158c.3-1.972.68-3.934,1.116-5.881a1.918,1.918,0,0,1,.824-1.191c1.685-.848,3.427-1.583,5.151-2.356.406-.182.817-.353,1.311-.565-.182-.53-.318-.99-.5-1.433a44.951,44.951,0,0,1-3.1-13.985c-.053-.8-.343-1.043-1.1-1.04-3.861.016-7.722.024-11.582-.02-1.106-.013-1.267.5-1.113,1.419.279,1.661.517,3.329.768,4.97-1.066,0-2.069-.038-3.067.008-1.619.075-1.62.1-1.9-1.531a36.766,36.766,0,0,1,20.006-39.4A34.2,34.2,0,0,1-202.6,88.331a8.313,8.313,0,0,0,1.417-.285Zm24.269,35.516v.008c1.968,0,3.936-.014,5.9.008.784.008,1.1-.308,1.017-1.1a32.951,32.951,0,0,0-8.011-18.772c-.572-.659-1.028-.611-1.745-.253-2.195,1.1-4.412,2.154-6.668,3.115-.869.37-1.034.7-.666,1.574a44.277,44.277,0,0,1,3.263,14.4c.053.818.381,1.032,1.117,1.023C-179.406,123.545-177.476,123.562-175.546,123.562Zm-39.966-16.435a2.74,2.74,0,0,0-.412-.283c-2.5-1.167-5.012-2.3-7.491-3.505-.716-.348-1.04.018-1.427.459a32.4,32.4,0,0,0-7.976,18.659c-.076.769.179,1.12.987,1.117q5.847-.022,11.694.007c.812,0,1.05-.294,1.156-1.117.361-2.8.724-5.617,1.338-8.37C-217.12,111.751-216.248,109.486-215.512,107.127Zm13.277,9.439h.015c0-1.929-.051-3.861.02-5.788.039-1.04-.379-1.358-1.355-1.475-2.617-.316-5.225-.708-7.826-1.14-.735-.123-1.1.035-1.379.73a40.765,40.765,0,0,0-3.089,13.629c-.03.827.215,1.066.995,1.061,3.821-.026,7.643-.038,11.464-.01.91.007,1.185-.36,1.167-1.218C-202.261,120.426-202.235,118.5-202.235,116.566Zm3.017-.177h-.01c0,2,.012,4.009-.006,6.013-.006.71.177,1.168,1,1.166q5.9-.014,11.8,0c.63,0,.894-.261.831-.9-.1-1.012-.141-2.03-.258-3.04a39.908,39.908,0,0,0-2.877-10.792c-.3-.715-.676-.813-1.386-.695q-3.954.656-7.931,1.173c-.831.109-1.2.415-1.176,1.286C-199.189,112.531-199.218,114.461-199.218,116.389Zm6.914,10.176v.006c-1.93,0-3.86.024-5.789-.011-.826-.015-1.144.293-1.14,1.129.023,3.935.026,7.87-.011,11.805-.009.861.3,1.195,1.143,1.3q4.092.539,8.165,1.2c.586.1.909.011,1.143-.558a39.977,39.977,0,0,0,3.183-13.833c.029-.794-.223-1.073-1.019-1.056C-188.52,126.592-190.412,126.565-192.3,126.565Zm-9.923,7.113c0-2,0-4.01,0-6.015,0-.654-.176-1.1-.951-1.1q-5.9.016-11.8,0c-.622,0-.906.234-.85.878.1,1.089.115,2.187.252,3.27a40.611,40.611,0,0,0,2.81,10.472c.238.576.5.929,1.25.806,2.713-.442,5.436-.827,8.16-1.2a1.125,1.125,0,0,0,1.147-1.327C-202.257,137.538-202.225,135.608-202.227,133.678Zm-4.125,23.029a6,6,0,0,0-.414-.7,45.522,45.522,0,0,1-6.82-9.443c-.351-.65-.795-.6-1.32-.379-1.462.611-2.93,1.215-4.373,1.872-.77.35-1.494.8-2.448,1.32A31.617,31.617,0,0,0-206.352,156.707Zm-15.31-55.986a11.111,11.111,0,0,0,1.132.716c1.786.812,3.592,1.579,5.368,2.411.855.4,1.345.23,1.795-.628a41.857,41.857,0,0,1,6.414-8.9,7.253,7.253,0,0,0,.574-.919A31.653,31.653,0,0,0-221.662,100.721Zm26.6-7.3a4.645,4.645,0,0,0,.365.682,46.314,46.314,0,0,1,6.836,9.428c.354.643.8.586,1.325.354,1.728-.757,3.461-1.5,5.177-2.29a15.629,15.629,0,0,0,1.537-.939A31.671,31.671,0,0,0-195.066,93.423Zm15.125,55.933a11.174,11.174,0,0,0-1.124-.687c-1.751-.8-3.524-1.545-5.266-2.36-.876-.409-1.345-.155-1.791.668a43.741,43.741,0,0,1-6.412,8.893,3.789,3.789,0,0,0-.387.655C-190.962,156.458-182.338,152.345-179.941,149.356Zm-30.817-4.45c.778,2.775,6.66,10.172,8.35,10.658.042-.06.122-.119.122-.179.016-3.624.041-7.249,0-10.873,0-.233-.513-.651-.791-.655a17.684,17.684,0,0,0-2.812.217C-207.51,144.315-209.121,144.622-210.758,144.906Zm-.073-39.976c.244.152.36.278.493.3,2.415.37,4.829.747,7.249,1.078.835.115.867-.514.866-1.117,0-3.212,0-6.424-.011-9.636,0-.349-.08-.7-.163-1.384A41.053,41.053,0,0,0-210.831,104.93Zm11.889-10.623c-.169.331-.232.4-.232.464q-.021,5.377-.031,10.754c0,.663.4.85.965.788,1.533-.168,3.07-.317,4.6-.546.98-.147,1.94-.422,3.093-.682A39.666,39.666,0,0,0-198.942,94.307Zm8.318,50.886a3.638,3.638,0,0,0-.819-.392c-2.158-.34-4.32-.654-6.48-.977-.977-.146-1.34.241-1.324,1.252.05,3.137.014,6.275.025,9.413a14.038,14.038,0,0,0,.184,1.438A41.366,41.366,0,0,0-190.624,145.193Z" fill="#00aeef"/>
    <path id="Path_150" data-name="Path 150" d="M-220.742,184.971l.724,16.559h-21.213l-.978-22.34-.373-.114a10.054,10.054,0,0,0-1.041,3.006c-.043,5.747.071,11.5.131,17.244a16.073,16.073,0,0,1,.006,1.7,3.215,3.215,0,0,1-2.842,3.055,3.013,3.013,0,0,1-3.181-2.507,34.107,34.107,0,0,1-.633-4.142q-.694-6.539-1.321-13.085a13.879,13.879,0,0,1,1.78-8.489c2.285-4,4.295-8.159,6.527-12.192a6.934,6.934,0,0,1,2.111-2.089,12.094,12.094,0,0,1,2.37-1.064,2.659,2.659,0,0,1,2.785.086,5.177,5.177,0,0,0,5.507-.237,2.2,2.2,0,0,1,1.9-.291c1.377.4,2.765.762,4.156,1.11a4.717,4.717,0,0,1,3.346,3.091c1.476,3.639,2.913,7.3,4.548,10.866,3.178,6.931,1.36,4.831,7.629,9.059,3.316,2.235,6.874,4.113,10.338,6.124a3.8,3.8,0,0,1,2.294,3.255,3.349,3.349,0,0,1-3.464,3.521,6.205,6.205,0,0,0-1.948.341,4.037,4.037,0,0,1-5.268-2.759,2.42,2.42,0,0,0-1.015-1.3c-3.171-1.91-6.417-3.7-9.56-5.652A29.718,29.718,0,0,1-220.742,184.971Z" fill="#ef8700"/>
    <path id="Path_151" data-name="Path 151" d="M-173.431,169.039c1.037-2.581,2.087-5.158,3.1-7.747.3-.775.726-1.221,1.724-.862a33.339,33.339,0,0,0-1.756,10.73c.183-.425.377-.846.548-1.276a59.61,59.61,0,0,1,5.562-11.137,1.254,1.254,0,0,1,1.681-.6c1.826.609,3.683,1.125,5.511,1.729a5.2,5.2,0,0,1,3.471,3.774c1.562,5.952,3.2,11.9,3.564,18.092a24.318,24.318,0,0,1-1.33,8.236c-1.125,3.879-2.4,7.714-3.66,11.553-.748,2.284-2.671,3.3-4.547,2.494-1.568-.676-2.2-2.41-1.728-4.448,1.014-4.375,1.962-8.766,2.97-13.142.986-4.277.166-8.4-.953-12.515a.364.364,0,0,0-.131-.165c-.222,3.554-.366,7.171-.693,10.772a89.994,89.994,0,0,1-3.178,16.328,1.222,1.222,0,0,1-.868.734c-5.374.04-10.748.023-16.122.014a3.518,3.518,0,0,1-.55-.136c.36-5.024.722-10.076,1.1-15.412a53.794,53.794,0,0,1-14.28,8.089c-.5-3.479-.514-3.493-4.053-6.222,3.443-2.081,6.891-4.194,10.371-6.251a7.335,7.335,0,0,0,3.113-3.328c2.178-4.814,4.527-9.56,6.478-14.464a8.053,8.053,0,0,1,4.274-4.667c.709-.332,1.425-.651,2.035-.929q-1.044,5.356-2.084,10.686Z" fill="#ef8700"/>
    <path id="Path_152" data-name="Path 152" d="M-226.6,145.434c-.536,2.419-1.006,4.855-1.643,7.247a7.66,7.66,0,0,1-1.33,2.474,4.046,4.046,0,0,1-5.511,1.267,7.274,7.274,0,0,1-1.6-1.061,16.668,16.668,0,0,1-5.343-9.38c-.856-4.467,2.291-8.358,6.942-8.791a7.605,7.605,0,0,1,8.19,7.274c.011.3,0,.6,0,.907Z" fill="#ef8700"/>
    <path id="Path_153" data-name="Path 153" d="M-166.232,135.485a7.415,7.415,0,0,1,7.308,9.4,18.071,18.071,0,0,1-4.3,7.868,10.123,10.123,0,0,1-1.528,1.344c-2.741,1.971-5.423,1.454-7.064-1.493a17.544,17.544,0,0,1-1.949-11.084C-173.271,137.889-170.025,135.474-166.232,135.485Z" fill="#ef8700"/>
  </g>
</svg>
