<?xml version="1.0" encoding="utf-8"?>
<!-- Generator: Adobe Illustrator 24.0.1, SVG Export Plug-In . SVG Version: 6.00 Build 0)  -->
<svg version="1.1" id="Capa_1" xmlns="http://www.w3.org/2000/svg" xmlns:xlink="http://www.w3.org/1999/xlink" x="0px" y="0px"
	 viewBox="0 0 400 400" style="enable-background:new 0 0 400 400;" xml:space="preserve">
<style type="text/css">
	.st0{fill:#F0F2F8;}
	.st1{fill:#FFFFFF;}
	.st2{fill:#00ACEA;}
	.st3{fill:#00EFD1;}
	.st4{fill:#00CEB4;}
</style>
<circle class="st0" cx="200" cy="200.5" r="155.5"/>
<g>
	<g>
		<path class="st1" d="M279.7,210.6v44c0,6.9-5.6,12.6-12.6,12.6H132.9c-6.9,0-12.6-5.6-12.6-12.6v-44h51.5c0,0,4.6,23.5,28.1,23.5
			s28.1-23.5,28.1-23.5H279.7L279.7,210.6z"/>
		<path class="st2" d="M253.6,141.2c-1.9-4.9-6.5-8.1-11.7-8.2h-83.8c-5.2,0.1-9.9,3.3-11.7,8.2l-26,69v0.4h159.3v-0.4L253.6,141.2z
			"/>
	</g>
	<path class="st3" d="M250.5,209.5v1h-22.5c0,0-4.6,23.5-28.1,23.5s-28.1-23.5-28.1-23.5h-20.4V178h99V209.5L250.5,209.5z"/>
	<rect x="162.1" y="152.9" class="st4" width="75.9" height="25.2"/>
</g>
</svg>
