<?xml version="1.0" encoding="utf-8"?>
<!-- Generator: Adobe Illustrator 24.0.1, SVG Export Plug-In . SVG Version: 6.00 Build 0)  -->
<svg version="1.1" id="Layer_1" xmlns="http://www.w3.org/2000/svg" xmlns:xlink="http://www.w3.org/1999/xlink" x="0px" y="0px"
	 viewBox="0 0 500 250" style="enable-background:new 0 0 500 250;" xml:space="preserve">
<style type="text/css">
	.st0{fill:#F4F4F4;}
	.st1{fill:#B2B2B2;}
</style>
<title>logo_placeholder</title>
<rect x="0.6" y="0.7" class="st0" width="498.8" height="247.6"/>
<g>
	<path class="st1" d="M271,136.5c-5.1,6.8-9.5,13.9-11.1,22.6c-1.8-1.4-3.6-2.7-5.4-4c-2.9-2.2-5.8-4.4-8.7-6.6
		c-2.8-2.2-5.7-4.4-8.5-6.5c-0.4-0.3-0.7-0.6-1.1-0.7c-0.9-0.4-0.9-1-0.7-1.8c0.1-0.3,0.3-0.7,0.6-0.8c2.1-0.8,4.1-1.6,6.2-2.3
		c2.2-0.8,4.4-1.5,6.6-2.3c2.1-0.7,4.1-1.6,6.2-2.3c0.7-0.2,1.2-0.5,2,0.2c2.2,2,5,2.2,7.8,0.7c0.3-0.1,0.8-0.1,1,0
		c0.9,0.6,1.7,1.2,2.6,1.8C269.1,135.2,270,135.8,271,136.5"/>
	<path class="st1" d="M208.4,101c3.6-9.8,10.2-16.7,20-20.9c-0.2,3.9-0.5,7.6-0.7,11.2c0,0.6-0.1,1.3-0.1,1.9
		c-0.2,4.6-0.4,9.3-0.7,13.9c0,0.2-0.3,0.6-0.5,0.7c-0.5,0.3-1,0.6-1.6,0.9C219.4,106.2,213.9,103.6,208.4,101"/>
	<path class="st1" d="M256.1,160.5c-9.4,1.3-18.6,1-27.6-0.5c-0.9-2.8-1.8-5.4-2.5-8.1c-0.1-0.5,0.3-1.2,0.5-1.7c1-2.2,2-4.4,3-6.6
		c0-0.1,0.1-0.2,0.2-0.3c0.3-0.1,0.6-0.2,0.8-0.1c1.1,0.4,2.1-0.9,3.3,0.1c3.2,2.6,6.5,5.1,9.8,7.6c4,3.1,8.1,6.1,12.1,9.1
		C255.9,160,256,160.2,256.1,160.5"/>
	<path class="st1" d="M262.8,121.2c-1.4,0-1.9-0.6-2.3-2.2c-0.5-1.8-1.1-3.6-1.7-5.4c-0.9-2.9-1.9-5.8-2.8-8.8
		c-0.4-1.1-0.7-2.3-1.1-3.4c-0.2-0.6-0.4-1.2,0.3-1.6c0.1,0,0.1-0.1,0.1-0.2c0.4-2.2,2.4-1.9,3.8-2.3c2.2-0.5,4.4-0.8,6.6-1.2
		c2.8-0.5,5.7-1,8.5-1.5c0.4-0.1,0.8-0.2,1.2-0.2s0.9,0,1,0.2c0.2,0.3,0.3,0.9,0.1,1.2c-0.7,1.4-1.4,2.8-2.2,4.2
		c-1.7,3.2-3.3,6.3-5,9.5c-1.9,3.5-3.7,7.1-5.6,10.6C263.6,120.6,263.6,121.4,262.8,121.2"/>
	<path class="st1" d="M232.5,111.6c0.3-0.3,0.5-0.7,0.8-0.9c3.9-2.5,7.8-5.1,11.7-7.6c0.7-0.5,1.5-0.8,2.1-1.4
		c1.4-1.2,2.8-0.7,4.2-0.2c0.3,0.1,0.6,0.6,0.7,1c0.7,2.2,1.3,4.3,2,6.5c1,3.2,2.1,6.4,3.1,9.6c0.1,0.3,0.1,0.7,0.2,1
		c0.7,1.9,0.7,2.2-0.9,3.3c-0.3,0.2-0.8,0.1-1.2,0c-2.5-1.2-5-2.4-7.5-3.6s-5-2.3-7.4-3.5c-2.4-1.1-4.8-2.2-7.2-3.4
		C232.9,112.5,232.8,112.1,232.5,111.6"/>
	<path class="st1" d="M272.7,133.9c-1.9-1.4-3.8-2.8-5.7-4.2c1.2-2.2,0.4-4.2-0.7-6.2c-0.2-0.4-0.1-1,0.1-1.4
		c1.6-3.1,3.2-6.2,4.9-9.3c1.6-3.1,3.2-6.2,4.9-9.3c0.8-1.5,1.6-3,2.5-4.7c2.7,5.5,3.1,11.2,2.4,16.8
		C280.3,122.6,276.8,128.4,272.7,133.9"/>
	<path class="st1" d="M254.9,127c-0.2,1.9-0.3,1.8-2.4,2.5c-2.2,0.7-4.4,1.5-6.6,2.3c-3.6,1.3-7.3,2.6-10.9,3.9
		c-0.1,0-0.2,0.1-0.3,0.1c-1-0.6-2-1-2.8-1.8c-0.4-0.4-0.3-1.3-0.3-1.9c-0.2-2.1-0.4-4.3-0.6-6.4c-0.2-2-0.3-3.9-0.5-5.9
		c0-0.6-0.1-1.1-0.2-1.7c-0.1-0.9-0.2-1.8,0.9-2.3c0.5-0.3,0.7-0.3,1.2-0.1c2.1,1,4.2,2,6.2,3c2.6,1.2,5.2,2.5,7.8,3.7
		c2,0.9,3.9,1.8,5.9,2.7c0.6,0.3,1.3,0.5,1.9,0.9C254.5,126.1,254.7,126.6,254.9,127"/>
	<path class="st1" d="M230,108.4c0.5-9.3,1-18.2,1.5-27.3c1.1,0.9,2.1,1.8,3.1,2.6c4,3.6,8,7.2,12.1,10.8c0.4,0.4,0.7,0.7,0.3,1.3
		v0.1c0.6,2.8-1.9,3.4-3.4,4.5c-2.2,1.5-4.5,2.8-6.8,4.3c-1.7,1.1-3.4,2.2-5.1,3.3C231.3,108.2,230.7,108.2,230,108.4"/>
	<path class="st1" d="M209.4,123c2.6-1.3,5-2.5,7.5-3.7c2.4-1.2,4.9-2.2,7.3-3.4c0.5-0.3,0.7,0,1.1,0.1c1.4,0.5,1.9,1.4,2,2.9
		c0.3,4.5,0.7,9,1,13.5c0.1,0.7,0.2,1.3,0.2,2s-0.5,1-1,0.6c-3.9-2.6-7.8-5.2-11.7-7.7C213.7,125.8,211.6,124.4,209.4,123"/>
	<path class="st1" d="M233.6,78.4c7.3-1.7,14.3-1.6,21.5,0.3c-1.2,4.6-2.5,9.1-3.7,13.6c-1.2,0.8-2.1,0.3-3.1-0.6
		c-4.6-4.2-9.3-8.4-14-12.5C234.1,79,233.9,78.7,233.6,78.4"/>
	<path class="st1" d="M274.3,91.4c-2.3,0.4-4.5,0.9-6.6,1.2c-2.8,0.5-5.7,1-8.5,1.5c-0.9,0.2-1.7,0.4-2.6,0.6
		c-1.3,0.3-2.2-0.5-1.9-1.8c0.5-2.1,1.1-4.2,1.6-6.4c0.5-2,1.1-4,1.6-6c0.2-0.7,0.6-0.9,1.1-0.6c3.3,1.5,6.6,3.1,9.3,5.5
		c1.8,1.6,3.5,3.4,5.3,5.1C273.9,90.7,274,91,274.3,91.4"/>
	<path class="st1" d="M244.3,170.1c-2.9,0-5.9,0.1-8.8,0c-1.8-0.1-3.7-0.4-5.5-0.6c-1.3-0.2-2.2-1.6-2-2.8c0.3-1.4,1.5-2.2,2.8-2
		c2.4,0.3,4.9,0.6,7.3,0.7c2.7,0.1,5.4,0.2,8.2,0.2c2.6,0,5.2-0.2,7.8-0.4c1-0.1,2-0.3,2.9-0.5c1.3-0.2,2.6,0.6,2.8,1.7
		c0.2,1.5-0.7,2.9-2.1,3c-4.5,0.4-9,0.8-13.5,1.2C244.3,170.4,244.3,170.2,244.3,170.1"/>
	<path class="st1" d="M207.5,104.1c1.4,0.7,2.7,1.2,3.9,1.8c3.5,1.6,7.1,3.3,10.6,4.9c0.4,0.2,0.8,0.4,1.2,0.6
		c0.4,0.3,0.4,1-0.1,1.3c-1.3,0.7-2.6,1.3-3.9,1.9c-2.5,1.2-4.9,2.3-7.4,3.5c-1.1,0.5-2.1,1.1-3.2,1.6c-0.5,0.2-1,0.3-1.1-0.5
		c-0.3-2.3-0.8-4.6-0.9-7C206.5,109.7,206.8,107,207.5,104.1"/>
	<path class="st1" d="M244.3,176.9c-3.2-0.2-6.5-0.4-9.7-0.6c-1.2-0.1-2.2-0.4-2.6-1.8c-0.4-1.4,0.5-2.9,1.9-2.9
		c2.6,0,5.2,0.2,7.8,0.3c1.5,0,3.1,0,4.6-0.1c0.1,0,0.1,0,0.2,0c2.4-0.1,4.9-0.2,7.3-0.2c1.1,0,2,0.7,2.2,1.6
		c0.2,1.6-0.3,2.6-1.5,2.9c-1.7,0.3-3.5,0.5-5.2,0.6c-1.6,0.1-3.3,0-4.9,0C244.3,176.8,244.3,176.8,244.3,176.9"/>
	<path class="st1" d="M224.4,147.5c-4.3-6.4-8.6-12.7-12.8-19c0.1-0.1,0.2-0.1,0.3-0.2c3.8,2.6,7.5,5.1,11.3,7.7
		c0.8,0.5,1.7,0.9,2.5,1.5c0.3,0.2,0.5,0.5,0.6,0.8c0.3,1,0.6,1.9,0.9,2.9c0,0.1,0,0.3-0.1,0.4C226.2,143.6,225.2,145.6,224.4,147.5
		"/>
	<path class="st1" d="M238.5,178.5c0.8,0.1,1.3,0.2,1.9,0.2c2.4,0,4.8,0,7.2,0c0.1,0,0.2,0,0.3,0c0.4,0,0.8,0,1.3,0
		c-0.1,0.4-0.2,0.9-0.4,1.3c-1.2,2.1-4.1,3.1-6.4,2.4C240.5,181.8,239.3,180.5,238.5,178.5"/>
	<path class="st1" d="M203.9,93.2c0,1.3-1,2.3-2.3,2.3c-1.3,0-2.3-1-2.3-2.3c0-1.3,1-2.3,2.3-2.3C202.9,90.9,203.9,92,203.9,93.2"/>
	<path class="st1" d="M293.1,101.7c0,2.6-2.1,4.7-4.7,4.7s-4.7-2.1-4.7-4.7c0-2.6,2.1-4.7,4.7-4.7
		C291.1,97.1,293.1,99.2,293.1,101.7"/>
	<path class="st1" d="M211.6,136.4c0,1.4-1.1,2.5-2.5,2.5c-1.4,0-2.5-1.1-2.5-2.5c0-1.4,1.1-2.5,2.5-2.5
		C210.5,133.9,211.6,135.1,211.6,136.4"/>
	<path class="st1" d="M276.7,142.9c0,0.7-0.5,1.2-1.2,1.2s-1.2-0.5-1.2-1.2s0.5-1.2,1.2-1.2C276.2,141.7,276.7,142.3,276.7,142.9"/>
</g>
</svg>
