<svg xmlns="http://www.w3.org/2000/svg" width="32.002" height="32.002" viewBox="0 0 32.002 32.002"><defs><style>.a{fill:#00aeef;}</style></defs><path class="a" d="M31.781,2.1,23.719-5.963a.742.742,0,0,0-.531-.219h-.644A12.943,12.943,0,0,0,26-15,13,13,0,0,0,13-28,13,13,0,0,0,0-15,13,13,0,0,0,13-2a12.967,12.967,0,0,0,8.819-3.45v.638a.769.769,0,0,0,.219.531L30.1,3.781a.751.751,0,0,0,1.063,0l.619-.619A.751.751,0,0,0,31.781,2.1ZM13-4A10.992,10.992,0,0,1,2-15,10.992,10.992,0,0,1,13-26,10.992,10.992,0,0,1,24-15,10.992,10.992,0,0,1,13-4Z" transform="translate(0 28)"/></svg>