<svg xmlns="http://www.w3.org/2000/svg" width="162.5" height="129.989" viewBox="0 0 162.5 129.989"><defs><style>.a{fill:#ef8700;}</style></defs><path class="a" d="M77.188-8.125H69.063v-32.5c0-4.489-3.275-8.125-7.315-8.125H3.232c-4.04,0-7.313,3.636-7.313,8.125v32.5h-8.125a4.064,4.064,0,0,0-4.062,4.063V5.418A10.9,10.9,0,0,0-5.451,16.25H70.431A10.9,10.9,0,0,0,81.25,5.416V-4.062A4.064,4.064,0,0,0,77.188-8.125ZM4.045-40.625H60.938v32.5H4.063ZM73.125,5.4a2.742,2.742,0,0,1-2.694,2.727H-5.424A2.747,2.747,0,0,1-8.145,5.416V0h81.27ZM-31.159-73.125a5.445,5.445,0,0,0-5.428,5.408v21.671a5.446,5.446,0,0,0,5.428,5.421h18.951c0-.027,0-.072,0-.1,0-5.187,3.64-11.513,8.125-14.12V-67.717A5.459,5.459,0,0,0-9.5-73.125ZM-12.208-48.75h-16.25V-65h16.25ZM-56.9-20.312V-71.094a5.744,5.744,0,0,0-.206-1.016l36.766-32.19L16.227-72.307v15.432h8.125V-65.19l9.5,8.315h5.078a4.5,4.5,0,0,0,1.574-3.131,5.39,5.39,0,0,0-1.282-2.963L24.375-75.989v-25.573a4.064,4.064,0,0,0-4.062-4.062,4.064,4.064,0,0,0-4.062,4.063v18.472l-33.909-29.644a4.7,4.7,0,0,0-2.675-1,4.7,4.7,0,0,0-2.675,1L-79.9-62.969A5.354,5.354,0,0,0-81.25-59.95a4.064,4.064,0,0,0,4.063,4.063,5.541,5.541,0,0,0,2.641-.972l9.514-8.333v44.88A12.228,12.228,0,0,0-52.845-8.125h28.437V-16.25H-52.845a4.065,4.065,0,0,1-4.06-4.062Z" transform="translate(81.25 113.739)"/></svg>