<svg width="30" height="30" viewBox="0 0 30 30" fill="none" xmlns="http://www.w3.org/2000/svg">
<circle cx="15" cy="15" r="14.5" fill="white" stroke="#707070"/>
<path d="M20.9474 11.4211V13.4668C20.9474 13.4668 19.5858 13.4737 19.5789 13.4668V11.4211H17.5263C17.5263 11.4211 17.5332 10.0595 17.5263 10.0526H19.5789V8H20.9474V10.0526H23V11.4211H20.9474ZM18.8947 14.1579V12.1053H16.8421V10.0526H11.3684C10.6158 10.0526 10 10.6684 10 11.4211V19.6316C10 20.3842 10.6158 21 11.3684 21H19.5789C20.3316 21 20.9474 20.3842 20.9474 19.6316V14.1579H18.8947ZM11.3684 19.6316L13.4211 16.8947L14.7895 18.9474L16.8421 16.2105L19.5789 19.6316H11.3684Z" fill="#707070"/>
</svg>
