<svg xmlns="http://www.w3.org/2000/svg" width="122.88" height="115.51" viewBox="0 0 122.88 115.51">
  <g id="Group_45" data-name="Group 45" transform="translate(261.727 -218.735)">
    <g id="Group_41" data-name="Group 41">
      <path id="Path_154" data-name="Path 154" d="M-235.647,318.815l2.53,7.44,1.27-4.42-.62-.68a1.051,1.051,0,0,1-.19-1.08c.34-.67,1.04-.54,1.69-.54.68,0,1.53-.13,1.74.73a1.155,1.155,0,0,1-.22.9l-.62.68,1.27,4.42,2.29-7.44a4.587,4.587,0,0,0,1.34.77,11.662,11.662,0,0,0-.51,1.25,15.176,15.176,0,0,0-.75,3.77h.01a.34.34,0,0,1-.01.1l-.55,7.06h-18.31a1.666,1.666,0,0,1-1.75-1.63l.38-3.9a6.216,6.216,0,0,1,1.13-3.32,4.845,4.845,0,0,1,1.51-1.28c1.82-1.05,6.72-1.34,8.37-2.83Z" fill="#ef8700"/>
      <path id="Path_155" data-name="Path 155" d="M-223.527,308.155a1.2,1.2,0,0,0-.75-.6l.11-3.58a5.438,5.438,0,0,0-1.38-3.47c-1.93-2.09-5.53-2.62-8.25-1.64a7.014,7.014,0,0,0-1.29.63,5.394,5.394,0,0,0-2.39,3.04,5.942,5.942,0,0,0-.17.92,34.5,34.5,0,0,0,.06,3.95,1.416,1.416,0,0,0-.39.19,1.432,1.432,0,0,0-.52.6,1.65,1.65,0,0,0-.15.78,4.224,4.224,0,0,0,.82,2.1l1.41,2.25a12.458,12.458,0,0,0,2.05,2.68,4.707,4.707,0,0,0,3.31,1.33,4.863,4.863,0,0,0,3.48-1.38,13.151,13.151,0,0,0,2.11-2.86l1.61-2.65.03-.06A2.761,2.761,0,0,0-223.527,308.155Zm-1.21,1.83-1.59,2.62a12.5,12.5,0,0,1-1.94,2.65,3.93,3.93,0,0,1-2.81,1.11,3.85,3.85,0,0,1-2.65-1.07,12.161,12.161,0,0,1-1.88-2.48l-1.41-2.25-.01-.01a3.232,3.232,0,0,1-.66-1.59.862.862,0,0,1,.06-.34.47.47,0,0,1,.17-.2,1.335,1.335,0,0,1,.57-.16.8.8,0,0,0,.75-.06l-.47-2.86a3.663,3.663,0,0,1,.84-1.66,2.606,2.606,0,0,1,1.47-.8c.77-.05,1.01.52,1.78,1.01a12.4,12.4,0,0,0,7.26,2.05l-.79,2.38a1.263,1.263,0,0,0,.87.15c.43-.03.7,0,.76.13C-224.317,308.815-224.417,309.255-224.737,309.985Z" fill="#ef8700"/>
    </g>
    <g id="Group_42" data-name="Group 42">
      <path id="Path_156" data-name="Path 156" d="M-190.007,297.425a1.728,1.728,0,0,0-1.12-.9l.15-5.34a8.216,8.216,0,0,0-2.07-5.17c-2.88-3.12-8.26-3.92-12.31-2.45a9.211,9.211,0,0,0-1.92.93,8.023,8.023,0,0,0-3.57,4.54,8.259,8.259,0,0,0-.26,1.37,54.841,54.841,0,0,0,.09,5.89,2.62,2.62,0,0,0-.58.29,2.179,2.179,0,0,0-.78.9,2.56,2.56,0,0,0-.22,1.16,6.26,6.26,0,0,0,1.22,3.14l2.11,3.36a19.073,19.073,0,0,0,3.07,4,7.052,7.052,0,0,0,4.95,1.98,7.221,7.221,0,0,0,5.19-2.06,19.521,19.521,0,0,0,3.15-4.26l2.41-3.96c.01-.03.03-.06.04-.09C-189.787,299.225-189.647,298.155-190.007,297.425Zm-1.82,2.72-2.37,3.9a18.3,18.3,0,0,1-2.89,3.95,5.818,5.818,0,0,1-4.18,1.66,5.632,5.632,0,0,1-3.95-1.59,17.847,17.847,0,0,1-2.81-3.7l-2.11-3.36-.01-.02a4.972,4.972,0,0,1-.98-2.37,1.276,1.276,0,0,1,.09-.5.685.685,0,0,1,.25-.29,1.845,1.845,0,0,1,.74-.23,1.462,1.462,0,0,0,1.24-.05l-.75-4.31a5.686,5.686,0,0,1,1.26-2.48,3.917,3.917,0,0,1,2.19-1.19c1.16-.08,1.5.76,2.66,1.5a18.487,18.487,0,0,0,10.84,3.06l-1.07,3.56a2.267,2.267,0,0,0,.95.23h.16c.7-.07,1.11-.02,1.21.18C-191.207,298.395-191.347,299.055-191.827,300.145Z" fill="#ef8700"/>
      <path id="Path_157" data-name="Path 157" d="M-208.087,313.325l3.78,11.11,1.9-6.59-.93-1.02a1.546,1.546,0,0,1-.28-1.61c.5-1,1.55-.81,2.52-.81,1.02,0,2.28-.19,2.6,1.08a1.7,1.7,0,0,1-.33,1.34l-.93,1.02,1.9,6.59,3.42-11.11c2.47,2.22,8.82,2.67,11.54,4.18a7.3,7.3,0,0,1,1.98,1.57.523.523,0,0,1,.07-.21c.3-.59.92-.48,1.5-.48.61,0,1.36-.11,1.55.65a1.075,1.075,0,0,1-.19.8l-.55.61,1.13,3.92-1.45,1.15.48,6.29a2.5,2.5,0,0,1-2.61,2.44h-40.54a2.5,2.5,0,0,1-2.61-2.44l.57-7.41a9.183,9.183,0,0,1,1.69-4.96,7.117,7.117,0,0,1,2.26-1.91c2.71-1.53,9.06-1.98,11.53-4.2Z" fill="#ef8700"/>
    </g>
    <g id="Group_43" data-name="Group 43">
      <path id="Path_158" data-name="Path 158" d="M-164.327,323.755a23.525,23.525,0,0,0-3.94-5.58,50.014,50.014,0,0,1,8.12,3.64c4.02,2.52,4.32,5.57,4.65,9.95h-19.93v-.1l-.37-3.13,1.43,1.24,7-6.09,3.04.07Z" fill="#ef8700"/>
      <path id="Path_159" data-name="Path 159" d="M-183.8,314.865l1.86-.05,1.55-.04c-1.8-5.55-1.2-10.65,3.14-14.99a9.723,9.723,0,0,0,5.2,5.8,27.5,27.5,0,0,1,3.9,3.59c.22-.92-.63-2.03-1.66-3.18a5.014,5.014,0,0,1,2.45,2.4,6.651,6.651,0,0,1,.47,4.31,8.856,8.856,0,0,1-.55,2.07h2.57c2.71-5.8.99-14.41-4.55-18.06-1.7-1.12-2.92-1.08-4.92-1.08-2.28,0-3.45.07-5.41,1.37-2.88,1.91-4.66,5.21-5.4,9.79-.15,2.29-.25,6.24,1.35,8.07Z" fill="#ef8700"/>
    </g>
    <g id="Group_44" data-name="Group 44">
      <path id="Path_160" data-name="Path 160" d="M-225.727,287.515a1.44,1.44,0,0,1-1.44,1.44,1.44,1.44,0,0,1-1.44-1.44v-35.27h-30.24v71.08h4.99a1.44,1.44,0,0,1,1.44,1.44,1.44,1.44,0,0,1-1.44,1.44h-6.43a1.44,1.44,0,0,1-1.44-1.44v-73.29a2.151,2.151,0,0,1,.62-1.5,2.115,2.115,0,0,1,1.5-.62h31v-28.09a2.493,2.493,0,0,1,.74-1.78v-.01a2.516,2.516,0,0,1,1.79-.74h51.35a2.516,2.516,0,0,1,1.79.74l.11.12a2.547,2.547,0,0,1,.64,1.67v28.09h31.22a2.11,2.11,0,0,1,1.49.62l.01.01a2.11,2.11,0,0,1,.62,1.49v73.29a1.44,1.44,0,0,1-1.44,1.44h-9.14a1.44,1.44,0,0,1-1.44-1.44,1.44,1.44,0,0,1,1.44-1.44h7.7v-71.08H-172.2V287.1a1.44,1.44,0,0,1-1.44,1.44,1.44,1.44,0,0,1-1.44-1.44v-65.48h-50.65v65.9Z" fill="#00aeef"/>
      <path id="Path_161" data-name="Path 161" d="M-164.577,287.275h15.9c.13,0,.24.08.24.17v4.7c0,.1-.11.18-.24.18h-15.9c-.13,0-.24-.08-.24-.18v-4.7c0-.09.11-.17.24-.17Z" fill="#00aeef"/>
      <path id="Path_162" data-name="Path 162" d="M-252.017,287.275h15.9c.13,0,.24.08.24.17v4.7c0,.1-.11.18-.24.18h-15.9c-.13,0-.24-.08-.24-.18v-4.7c0-.09.11-.17.24-.17Z" fill="#00aeef"/>
      <path id="Path_163" data-name="Path 163" d="M-219.267,227.205h37.74a1.157,1.157,0,0,1,1.15,1.15v12.31a1.157,1.157,0,0,1-1.15,1.15h-37.74a1.157,1.157,0,0,1-1.15-1.15v-12.31a1.144,1.144,0,0,1,1.15-1.15Z" fill="#00aeef"/>
      <path id="Path_164" data-name="Path 164" d="M-164.577,277.005h15.9c.13,0,.24.08.24.18v4.7c0,.1-.11.18-.24.18h-15.9c-.13,0-.24-.08-.24-.18v-4.7c0-.1.11-.18.24-.18Z" fill="#00aeef"/>
      <path id="Path_165" data-name="Path 165" d="M-164.577,266.725h15.9c.13,0,.24.08.24.18v4.7c0,.1-.11.18-.24.18h-15.9c-.13,0-.24-.08-.24-.18v-4.7c0-.1.11-.18.24-.18Z" fill="#00aeef"/>
      <path id="Path_166" data-name="Path 166" d="M-252.017,277.005h15.9c.13,0,.24.08.24.18v4.7c0,.1-.11.18-.24.18h-15.9c-.13,0-.24-.08-.24-.18v-4.7c0-.1.11-.18.24-.18Z" fill="#00aeef"/>
      <path id="Path_167" data-name="Path 167" d="M-252.017,266.725h15.9c.13,0,.24.08.24.18v4.7c0,.1-.11.18-.24.18h-15.9c-.13,0-.24-.08-.24-.18v-4.7c0-.1.11-.18.24-.18Z" fill="#00aeef"/>
      <path id="Path_168" data-name="Path 168" d="M-190.057,267.815h8.49a.243.243,0,0,1,.24.24v8.49a.243.243,0,0,1-.24.24h-8.49a.243.243,0,0,1-.24-.24v-8.49a.243.243,0,0,1,.24-.24Z" fill="#00aeef"/>
      <path id="Path_169" data-name="Path 169" d="M-204.647,267.815h8.49a.243.243,0,0,1,.24.24v8.49a.243.243,0,0,1-.24.24h-8.49a.243.243,0,0,1-.24-.24v-8.49a.243.243,0,0,1,.24-.24Z" fill="#00aeef"/>
      <path id="Path_170" data-name="Path 170" d="M-219.237,267.815h8.49a.243.243,0,0,1,.24.24v8.49a.243.243,0,0,1-.24.24h-8.49a.243.243,0,0,1-.24-.24v-8.49a.243.243,0,0,1,.24-.24Z" fill="#00aeef"/>
      <path id="Path_171" data-name="Path 171" d="M-190.057,251.345h8.49a.243.243,0,0,1,.24.24v8.49a.243.243,0,0,1-.24.24h-8.49a.243.243,0,0,1-.24-.24v-8.49a.237.237,0,0,1,.24-.24Z" fill="#00aeef"/>
      <path id="Path_172" data-name="Path 172" d="M-204.647,251.345h8.49a.243.243,0,0,1,.24.24v8.49a.243.243,0,0,1-.24.24h-8.49a.243.243,0,0,1-.24-.24v-8.49a.237.237,0,0,1,.24-.24Z" fill="#00aeef"/>
      <path id="Path_173" data-name="Path 173" d="M-219.237,251.345h8.49a.243.243,0,0,1,.24.24v8.49a.243.243,0,0,1-.24.24h-8.49a.243.243,0,0,1-.24-.24v-8.49a.237.237,0,0,1,.24-.24Z" fill="#00aeef"/>
    </g>
  </g>
</svg>
