<?xml version="1.0"?>
<svg xmlns="http://www.w3.org/2000/svg" id="Layer_1" enable-background="new 0 0 512 512" height="512px" viewBox="0 0 512 512" width="512px"><path d="m256 0c-141.389 0-256 114.615-256 256 0 141.418 114.772 256 256 256h85.333c9.054 0 17.732-3.596 24.132-9.998 6.408-6.401 10.001-15.083 10.001-24.136 0-18.851-15.283-34.133-34.133-34.133h-85.333c-103.689 0-187.733-84.139-187.733-187.733 0-103.683 84.053-187.733 187.733-187.733s187.733 84.05 187.733 187.733v17.067c0 18.886-15.337 34.133-34.133 34.133-18.814 0-34.133-15.263-34.133-34.133v-17.067c0-65.935-53.53-119.467-119.467-119.467s-119.467 53.532-119.467 119.467 53.53 119.467 119.467 119.467c32.964 0 62.831-13.383 84.463-35.007 10.727 10.729 30.574 35.007 69.137 35.007 56.55 0 102.4-45.846 102.4-102.4v-17.067c0-141.385-114.611-256-256-256zm0 307.2c-28.254 0-51.2-22.942-51.2-51.2s22.946-51.2 51.2-51.2 51.2 22.942 51.2 51.2-22.946 51.2-51.2 51.2z" fill="#5E7C8D"/></svg>
