<?xml version="1.0" encoding="utf-8"?>
<!-- Generator: Adobe Illustrator 24.0.1, SVG Export Plug-In . SVG Version: 6.00 Build 0)  -->
<svg version="1.1" id="Layer_1" xmlns="http://www.w3.org/2000/svg" xmlns:xlink="http://www.w3.org/1999/xlink" x="0px" y="0px"
	 viewBox="0 0 110 120" style="enable-background:new 0 0 110 120;" xml:space="preserve">
<style type="text/css">
	.st0{opacity:0;fill:#FFFFFF;}
	.st1{fill:#1AB3E2;}
	.st2{fill:#28B9E4;}
</style>
<rect x="-15.8" y="3.3" class="st0" width="141.5" height="113.6"/>
<path class="st1" d="M79.9,68.4c-5.1,6.8-9.5,13.9-11.1,22.6c-1.8-1.4-3.6-2.7-5.4-4c-2.9-2.2-5.8-4.4-8.7-6.6
	c-2.8-2.2-5.7-4.4-8.5-6.5c-0.4-0.3-0.7-0.6-1.1-0.7c-0.9-0.4-0.9-1-0.7-1.8c0.1-0.3,0.3-0.7,0.6-0.8c2.1-0.8,4.1-1.6,6.2-2.3
	c2.2-0.8,4.4-1.5,6.6-2.3c2.1-0.7,4.1-1.6,6.2-2.3c0.7-0.2,1.2-0.5,2,0.2c2.2,2,5,2.2,7.8,0.7c0.3-0.1,0.8-0.1,1,0
	c0.9,0.6,1.7,1.2,2.6,1.8C78,67.1,78.9,67.7,79.9,68.4"/>
<path class="st2" d="M17.3,32.9c3.6-9.8,10.2-16.7,20-20.9c-0.2,3.9-0.5,7.6-0.7,11.2c0,0.6-0.1,1.3-0.1,1.9
	c-0.2,4.6-0.4,9.3-0.7,13.9c0,0.2-0.3,0.6-0.5,0.7c-0.5,0.3-1,0.6-1.6,0.9C28.3,38.1,22.8,35.5,17.3,32.9"/>
<path class="st1" d="M65,92.4c-9.4,1.3-18.6,1-27.6-0.5c-0.9-2.8-1.8-5.4-2.5-8.1c-0.1-0.5,0.3-1.2,0.5-1.7c1-2.2,2-4.4,3-6.6
	c0-0.1,0.1-0.2,0.2-0.3c0.3-0.1,0.6-0.2,0.8-0.1c1.1,0.4,2.1-0.9,3.3,0.1c3.2,2.6,6.5,5.1,9.8,7.6c4,3.1,8.1,6.1,12.1,9.1
	C64.8,91.9,64.9,92.1,65,92.4"/>
<path class="st2" d="M71.7,53.1c-1.4,0-1.9-0.6-2.3-2.2c-0.5-1.8-1.1-3.6-1.7-5.4c-0.9-2.9-1.9-5.8-2.8-8.8
	c-0.4-1.1-0.7-2.3-1.1-3.4c-0.2-0.6-0.4-1.2,0.3-1.6c0.1,0,0.1-0.1,0.1-0.2c0.4-2.2,2.4-1.9,3.8-2.3c2.2-0.5,4.4-0.8,6.6-1.2
	c2.8-0.5,5.7-1,8.5-1.5c0.4-0.1,0.8-0.2,1.2-0.2c0.4,0,0.9,0,1,0.2c0.2,0.3,0.3,0.9,0.1,1.2c-0.7,1.4-1.4,2.8-2.2,4.2
	c-1.7,3.2-3.3,6.3-5,9.5c-1.9,3.5-3.7,7.1-5.6,10.6C72.5,52.5,72.5,53.3,71.7,53.1"/>
<path class="st2" d="M41.4,43.5c0.3-0.3,0.5-0.7,0.8-0.9c3.9-2.5,7.8-5.1,11.7-7.6c0.7-0.5,1.5-0.8,2.1-1.4c1.4-1.2,2.8-0.7,4.2-0.2
	c0.3,0.1,0.6,0.6,0.7,1c0.7,2.2,1.3,4.3,2,6.5c1,3.2,2.1,6.4,3.1,9.6c0.1,0.3,0.1,0.7,0.2,1c0.7,1.9,0.7,2.2-0.9,3.3
	c-0.3,0.2-0.8,0.1-1.2,0c-2.5-1.2-5-2.4-7.5-3.6c-2.5-1.2-5-2.3-7.4-3.5c-2.4-1.1-4.8-2.2-7.2-3.4C41.8,44.4,41.7,44,41.4,43.5"/>
<path class="st2" d="M81.6,65.8c-1.9-1.4-3.8-2.8-5.7-4.2c1.2-2.2,0.4-4.2-0.7-6.2c-0.2-0.4-0.1-1,0.1-1.4c1.6-3.1,3.2-6.2,4.9-9.3
	c1.6-3.1,3.2-6.2,4.9-9.3c0.8-1.5,1.6-3,2.5-4.7c2.7,5.5,3.1,11.2,2.4,16.8C89.2,54.5,85.7,60.3,81.6,65.8"/>
<path class="st1" d="M63.8,58.9c-0.2,1.9-0.3,1.8-2.4,2.5c-2.2,0.7-4.4,1.5-6.6,2.3c-3.6,1.3-7.3,2.6-10.9,3.9
	c-0.1,0-0.2,0.1-0.3,0.1c-1-0.6-2-1-2.8-1.8c-0.4-0.4-0.3-1.3-0.3-1.9c-0.2-2.1-0.4-4.3-0.6-6.4c-0.2-2-0.3-3.9-0.5-5.9
	c0-0.6-0.1-1.1-0.2-1.7c-0.1-0.9-0.2-1.8,0.9-2.3c0.5-0.3,0.7-0.3,1.2-0.1c2.1,1,4.2,2,6.2,3c2.6,1.2,5.2,2.5,7.8,3.7
	c2,0.9,3.9,1.8,5.9,2.7c0.6,0.3,1.3,0.5,1.9,0.9C63.4,58,63.6,58.5,63.8,58.9"/>
<path class="st2" d="M38.9,40.3c0.5-9.3,1-18.2,1.5-27.3c1.1,0.9,2.1,1.8,3.1,2.6c4,3.6,8,7.2,12.1,10.8c0.4,0.4,0.7,0.7,0.3,1.3
	c0,0,0,0.1,0,0.1c0.6,2.8-1.9,3.4-3.4,4.5c-2.2,1.5-4.5,2.8-6.8,4.3c-1.7,1.1-3.4,2.2-5.1,3.3C40.2,40.1,39.6,40.1,38.9,40.3"/>
<path class="st1" d="M18.3,54.9c2.6-1.3,5-2.5,7.5-3.7c2.4-1.2,4.9-2.2,7.3-3.4c0.5-0.3,0.7,0,1.1,0.1c1.4,0.5,1.9,1.4,2,2.9
	c0.3,4.5,0.7,9,1,13.5c0.1,0.7,0.2,1.3,0.2,2c0,0.7-0.5,1-1,0.6c-3.9-2.6-7.8-5.2-11.7-7.7C22.6,57.7,20.5,56.3,18.3,54.9"/>
<path class="st2" d="M42.5,10.3c7.3-1.7,14.3-1.6,21.5,0.3c-1.2,4.6-2.5,9.1-3.7,13.6c-1.2,0.8-2.1,0.3-3.1-0.6
	c-4.6-4.2-9.3-8.4-14-12.5C43,10.9,42.8,10.6,42.5,10.3"/>
<path class="st2" d="M83.2,23.3c-2.3,0.4-4.5,0.9-6.6,1.2c-2.8,0.5-5.7,1-8.5,1.5c-0.9,0.2-1.7,0.4-2.6,0.6
	c-1.3,0.3-2.2-0.5-1.9-1.8c0.5-2.1,1.1-4.2,1.6-6.4c0.5-2,1.1-4,1.6-6c0.2-0.7,0.6-0.9,1.1-0.6c3.3,1.5,6.6,3.1,9.3,5.5
	c1.8,1.6,3.5,3.4,5.3,5.1C82.8,22.6,82.9,22.9,83.2,23.3"/>
<path class="st1" d="M53.2,102c-2.9,0-5.9,0.1-8.8,0c-1.8-0.1-3.7-0.4-5.5-0.6c-1.3-0.2-2.2-1.6-2-2.8c0.3-1.4,1.5-2.2,2.8-2
	c2.4,0.3,4.9,0.6,7.3,0.7c2.7,0.1,5.4,0.2,8.2,0.2c2.6,0,5.2-0.2,7.8-0.4c1-0.1,2-0.3,2.9-0.5c1.3-0.2,2.6,0.6,2.8,1.7
	c0.2,1.5-0.7,2.9-2.1,3c-4.5,0.4-9,0.8-13.5,1.2C53.2,102.3,53.2,102.1,53.2,102"/>
<path class="st1" d="M16.4,36c1.4,0.7,2.7,1.2,3.9,1.8c3.5,1.6,7.1,3.3,10.6,4.9c0.4,0.2,0.8,0.4,1.2,0.6c0.4,0.3,0.4,1-0.1,1.3
	c-1.3,0.7-2.6,1.3-3.9,1.9c-2.5,1.2-4.9,2.3-7.4,3.5c-1.1,0.5-2.1,1.1-3.2,1.6c-0.5,0.2-1,0.3-1.1-0.5c-0.3-2.3-0.8-4.6-0.9-7
	C15.4,41.6,15.7,38.9,16.4,36"/>
<path class="st1" d="M53.2,108.8c-3.2-0.2-6.5-0.4-9.7-0.6c-1.2-0.1-2.2-0.4-2.6-1.8c-0.4-1.4,0.5-2.9,1.9-2.9
	c2.6,0,5.2,0.2,7.8,0.3c1.5,0,3.1,0,4.6-0.1c0.1,0,0.1,0,0.2,0c2.4-0.1,4.9-0.2,7.3-0.2c1.1,0,2,0.7,2.2,1.6
	c0.2,1.6-0.3,2.6-1.5,2.9c-1.7,0.3-3.5,0.5-5.2,0.6c-1.6,0.1-3.3,0-4.9,0C53.2,108.7,53.2,108.7,53.2,108.8"/>
<path class="st1" d="M33.3,79.4c-4.3-6.4-8.6-12.7-12.8-19c0.1-0.1,0.2-0.1,0.3-0.2c3.8,2.6,7.5,5.1,11.3,7.7
	c0.8,0.5,1.7,0.9,2.5,1.5c0.3,0.2,0.5,0.5,0.6,0.8c0.3,1,0.6,1.9,0.9,2.9c0,0.1,0,0.3-0.1,0.4C35.1,75.5,34.1,77.5,33.3,79.4"/>
<path class="st1" d="M47.4,110.4c0.8,0.1,1.3,0.2,1.9,0.2c2.4,0,4.8,0,7.2,0c0.1,0,0.2,0,0.3,0c0.4,0,0.8,0,1.3,0
	c-0.1,0.4-0.2,0.9-0.4,1.3c-1.2,2.1-4.1,3.1-6.4,2.4C49.4,113.7,48.2,112.4,47.4,110.4"/>
<path class="st2" d="M12.8,25.1c0,1.3-1,2.3-2.3,2.3c-1.3,0-2.3-1-2.3-2.3c0-1.3,1-2.3,2.3-2.3C11.8,22.8,12.8,23.9,12.8,25.1"/>
<path class="st2" d="M102,33.6c0,2.6-2.1,4.7-4.7,4.7c-2.6,0-4.7-2.1-4.7-4.7c0-2.6,2.1-4.7,4.7-4.7C100,29,102,31.1,102,33.6"/>
<path class="st2" d="M71.2,5.8C71.2,6.5,70.7,7,70,7c-0.7,0-1.2-0.5-1.2-1.2c0-0.7,0.5-1.2,1.2-1.2C70.7,4.6,71.2,5.2,71.2,5.8"/>
<path class="st1" d="M20.5,68.3c0,1.4-1.1,2.5-2.5,2.5c-1.4,0-2.5-1.1-2.5-2.5c0-1.4,1.1-2.5,2.5-2.5C19.4,65.8,20.5,67,20.5,68.3"
	/>
<path class="st1" d="M85.6,74.8c0,0.7-0.5,1.2-1.2,1.2c-0.7,0-1.2-0.5-1.2-1.2c0-0.7,0.5-1.2,1.2-1.2C85.1,73.6,85.6,74.2,85.6,74.8
	"/>
</svg>
