<svg xmlns="http://www.w3.org/2000/svg" width="142.24" height="105.72" viewBox="0 0 142.24 105.72"><defs><style>.a{fill:#ef8700;}.b{fill:#00aeef;}</style></defs><g transform="translate(263.548 30.715)"><path class="a" d="M-187.032-16.76a.643.643,0,0,0-.415-.334l.055-1.981a3.048,3.048,0,0,0-.768-1.919,4.446,4.446,0,0,0-4.568-.909,3.429,3.429,0,0,0-.713.345,2.973,2.973,0,0,0-1.324,1.685,3.012,3.012,0,0,0-.1.508,20.338,20.338,0,0,0,.033,2.186.983.983,0,0,0-.215.108.8.8,0,0,0-.289.334.937.937,0,0,0-.082.43,2.324,2.324,0,0,0,.453,1.165l.783,1.247a7.1,7.1,0,0,0,1.139,1.485,2.618,2.618,0,0,0,1.837.734,2.677,2.677,0,0,0,1.926-.764,7.216,7.216,0,0,0,1.169-1.581l.9-1.469c0-.012.011-.023.014-.034A1.529,1.529,0,0,0-187.032-16.76Zm-.675,1.01-.879,1.447a6.8,6.8,0,0,1-1.073,1.466,2.158,2.158,0,0,1-1.551.616,2.093,2.093,0,0,1-1.466-.59,6.62,6.62,0,0,1-1.043-1.373l-.783-1.247,0-.008a1.843,1.843,0,0,1-.363-.879.479.479,0,0,1,.033-.186.254.254,0,0,1,.093-.107.686.686,0,0,1,.274-.086.542.542,0,0,0,.461-.018l-.279-1.6a2.112,2.112,0,0,1,.468-.92,1.452,1.452,0,0,1,.813-.442c.43-.029.556.282.987.557A6.863,6.863,0,0,0-188-17.984l-.4,1.321a.847.847,0,0,0,.353.085h.059c.26-.026.412-.007.449.067C-187.477-16.4-187.529-16.155-187.707-15.75Z"/><path class="a" d="M-182.894-6.335-182.716-4a.927.927,0,0,1-.968.906h-15.045A.927.927,0,0,1-199.7-4l.211-2.75a3.411,3.411,0,0,1,.627-1.841,2.642,2.642,0,0,1,.839-.708c1.006-.568,3.362-.735,4.279-1.559h0l1.4,4.123.705-2.446-.345-.378a.573.573,0,0,1-.1-.6c.185-.371.575-.3.935-.3.378,0,.846-.071.965.4a.628.628,0,0,1-.123.5l-.345.378.7,2.446,1.269-4.123c.917.824,3.274.991,4.283,1.551a2.715,2.715,0,0,1,.735.583A5.738,5.738,0,0,1-182.894-6.335Z"/><path class="b" d="M-263.548,11.809a11.545,11.545,0,0,1,1.342-2.055,3.915,3.915,0,0,1,4.478-.916A4.251,4.251,0,0,1-255,13.115c.02,4.443.008,8.886.008,13.329V46.628h1.7c6.109,0,12.218-.01,18.327.013a8.111,8.111,0,0,1,2.465.287,4.224,4.224,0,0,1,1.619,6.924c-.284.3-.614.55-.506.82.235,2.218.6,4.432.677,6.655.111,3.375.054,6.757,0,10.134a3.522,3.522,0,0,1-2.728,3.413,3.486,3.486,0,0,1-3.995-2.015,5.291,5.291,0,0,1-.332-2.021c-.032-3.471-.007-6.942-.018-10.413-.01-2.791-1.087-3.87-3.854-3.876q-5.138-.01-10.275,0c-2.563.01-3.631,1.068-3.644,3.621-.017,3.656.006,7.312-.014,10.968a3.615,3.615,0,0,1-2.242,3.528,2.953,2.953,0,0,1-3.585-.611,4.906,4.906,0,0,1-1.27-2.769c-.134-4.068-.114-8.145-.008-12.215a26.467,26.467,0,0,1,.78-3.629,2.25,2.25,0,0,0-.239-1.376,19.932,19.932,0,0,0-1.419-1.979Z"/><path class="b" d="M-211.35,36.325c-1.915,0-3.572.017-5.228,0-2.781-.035-4.546-1.675-4.5-4.156.04-2.391,1.826-3.98,4.544-3.981q23.252-.012,46.5,0c2.675,0,4.5,1.653,4.527,4.026s-1.793,4.063-4.442,4.1c-1.7.024-3.4.005-5.23.005V72.568h-36.17Z"/><path class="a" d="M-228.372,45.2c-4.681,0-9.255-.017-13.829.006a10.765,10.765,0,0,1-8.935-3.91,7.338,7.338,0,0,1-1.6-4.773c-.006-7.959-.037-15.919.01-23.878.028-4.57,3.866-8.367,8.882-8.842a10.427,10.427,0,0,1,9.458,3.9c2.217,2.665,4.306,5.436,6.53,8.094,2.483,2.969,5.642,3.646,9.263,2.466,1.1-.358,2.183-.768,3.3-1.053a4.223,4.223,0,0,1,4.94,2.6,4.089,4.089,0,0,1-1.946,5.224c-4.4,1.909-9.009,3.059-13.755,1.643-2.249-.67-4.292-2.034-6.434-3.087V35.119c2.565,0,5.093,0,7.62,0,3.98,0,5.637,1.4,6.122,5.387q1.673,13.771,3.224,27.556c.387,3.431-.9,5.556-3.61,6.3-3.115.856-5.958-1.214-6.354-4.625q-1.385-11.919-2.774-23.838C-228.279,45.718-228.317,45.538-228.372,45.2Z"/><path class="a" d="M-156.532,45.169c-.682,5.856-1.346,11.546-2.007,17.237-.293,2.526-.547,5.057-.877,7.579a5.105,5.105,0,0,1-5.348,4.578,4.93,4.93,0,0,1-4.628-5.511c.386-4.467.952-8.919,1.466-13.375.6-5.236,1.234-10.47,1.853-15.7a5.023,5.023,0,0,1,5.355-4.853c2.727-.023,5.455-.005,8.312-.005V23.268c-.97.663-1.814,1.291-2.707,1.84-4.682,2.875-9.6,2.513-14.593,1.016a21.389,21.389,0,0,1-2.477-.884,4.228,4.228,0,0,1-2.342-5.413,4.22,4.22,0,0,1,5.192-2.548c1.467.406,2.922.855,4.388,1.261A7,7,0,0,0-157.43,16.2c2.444-2.771,4.674-5.729,7.006-8.6,4.235-5.212,12.688-5.142,16.655.28a8.324,8.324,0,0,1,1.559,4.463c.152,8.1.128,16.2.056,24.292-.04,4.544-3.973,8.305-8.961,8.482-4.714.166-9.438.047-14.157.053Z"/><path class="b" d="M-163.993-30.715v4.152l2.578.227V-6.31h-2.471V6.341H-218.58V-6.165L-221-6.294V-26.35l2.329-.179v-4.186Zm-16.458,27.45h13.264V-27.606h-48.232V-3.218h12.148Zm13.3,3.734h-48.277V3.221h48.277Z"/><path class="b" d="M-153.3,54.486c-1.923-1.711-2.439-3.636-1.366-5.6.963-1.759,2.565-2.265,4.44-2.262q9.232.012,18.463,0h1.885V44.953q0-15.547.016-31.095a8.244,8.244,0,0,1,.392-2.718,4.132,4.132,0,0,1,4.455-2.573,4.3,4.3,0,0,1,3.66,3.809,12.8,12.8,0,0,1,.033,1.386q0,18.046.013,36.093a5.273,5.273,0,0,1-1.613,4.387c-.2.176-.2.706-.14,1.049a43.8,43.8,0,0,1,.869,5.137c.139,3.512.053,7.032.038,10.549-.01,2.35-1.453,3.955-3.526,3.971a3.617,3.617,0,0,1-3.619-3.9c-.043-3.609,0-7.219-.017-10.828-.011-2.632-1.067-3.663-3.736-3.671q-5.136-.013-10.272,0c-2.666.008-3.753,1.11-3.765,3.821-.016,3.7.017,7.4-.031,11.1a3.561,3.561,0,0,1-2.749,3.4,3.462,3.462,0,0,1-3.917-1.919,4.9,4.9,0,0,1-.388-2.006c-.036-3.748-.1-7.5.023-11.243A40.744,40.744,0,0,1-153.3,54.486Z"/><path class="a" d="M-144.615,3.287a10.992,10.992,0,0,1-11.02-10.87,11.086,11.086,0,0,1,10.993-11.074A11.074,11.074,0,0,1-133.69-7.68,10.983,10.983,0,0,1-144.615,3.287Z"/><path class="a" d="M-240.279,3.287A10.972,10.972,0,0,1-251.178-7.7a11.06,11.06,0,0,1,10.97-10.955A11.084,11.084,0,0,1-229.234-7.562,10.985,10.985,0,0,1-240.279,3.287Z"/><path class="a" d="M-170.814-20.346h-1.765a9.31,9.31,0,0,0-.734-1.4,2.319,2.319,0,0,1,.144-3.242,2.286,2.286,0,0,1,3.031.056,2.259,2.259,0,0,1,.12,3.137A11.263,11.263,0,0,0-170.814-20.346Zm-.877-1.206c.569-.792,1.189-1.288,1.118-1.646-.1-.48-.726-.855-1.126-1.275-.4.383-1.091.752-1.11,1.153C-172.831-22.863-172.249-22.378-171.691-21.552Z"/><path class="a" d="M-206.057-26.081v2h-7.106v-2Z"/><path class="a" d="M-213.151-22.864h4.8v2.071h-4.8Z"/><path class="a" d="M-209.7-19.692v2.034h-3.435v-2.034Z"/><path class="a" d="M-213.185-14.391v-1.981h2.024v1.981Z"/></g></svg>