<?xml version="1.0" encoding="utf-8"?>
<!-- Generator: Adobe Illustrator 24.0.1, SVG Export Plug-In . SVG Version: 6.00 Build 0)  -->
<svg version="1.1" id="Layer_1" xmlns="http://www.w3.org/2000/svg" xmlns:xlink="http://www.w3.org/1999/xlink" x="0px" y="0px"
	 viewBox="0 0 141.5 113.6" style="enable-background:new 0 0 141.5 113.6;" xml:space="preserve">
<style type="text/css">
	.st0{opacity:0;fill:#FFFFFF;}
	.st1{fill:#FFFFFF;}
</style>
<rect x="0" y="0.1" class="st0" width="141.5" height="113.6"/>
<g>
	<path class="st1" d="M83.8,39c-2.6,3.6-5,7.3-5.8,11.8c-1-0.7-1.9-1.4-2.8-2.1c-1.5-1.1-3-2.3-4.6-3.4c-1.5-1.1-3-2.3-4.5-3.4
		c-0.2-0.1-0.4-0.3-0.6-0.4c-0.5-0.2-0.5-0.5-0.4-0.9c0-0.2,0.2-0.4,0.3-0.4c1.1-0.4,2.2-0.8,3.2-1.2c1.1-0.4,2.3-0.8,3.5-1.2
		c1.1-0.4,2.1-0.8,3.2-1.2c0.3-0.1,0.6-0.2,1,0.1c1.2,1,2.6,1.2,4.1,0.4c0.1-0.1,0.4-0.1,0.5,0c0.5,0.3,0.9,0.6,1.3,1
		C82.9,38.3,83.3,38.6,83.8,39"/>
	<path class="st1" d="M51.1,20.4c1.9-5.1,5.3-8.7,10.5-10.9c-0.1,2-0.2,3.9-0.4,5.8c0,0.3,0,0.7-0.1,1c-0.1,2.4-0.2,4.9-0.3,7.3
		c0,0.1-0.1,0.3-0.2,0.4c-0.3,0.2-0.5,0.3-0.8,0.5C56.9,23.1,54,21.8,51.1,20.4"/>
	<path class="st1" d="M76.1,51.5c-4.9,0.7-9.7,0.5-14.4-0.3c-0.5-1.4-0.9-2.8-1.3-4.2c-0.1-0.3,0.1-0.6,0.3-0.9
		c0.5-1.2,1.1-2.3,1.6-3.4c0,0,0.1-0.1,0.1-0.1c0.1,0,0.3-0.1,0.4-0.1c0.6,0.2,1.1-0.5,1.7,0c1.7,1.4,3.4,2.7,5.1,4
		c2.1,1.6,4.2,3.2,6.3,4.8C75.9,51.3,76,51.4,76.1,51.5"/>
	<path class="st1" d="M79.6,31c-0.7,0-1-0.3-1.2-1.1c-0.3-1-0.6-1.9-0.9-2.8c-0.5-1.5-1-3.1-1.5-4.6c-0.2-0.6-0.4-1.2-0.6-1.8
		c-0.1-0.3-0.2-0.6,0.1-0.8c0,0,0.1-0.1,0.1-0.1c0.2-1.1,1.2-1,2-1.2c1.1-0.3,2.3-0.4,3.5-0.6c1.5-0.3,3-0.5,4.4-0.8
		c0.2,0,0.4-0.1,0.7-0.1c0.2,0,0.5,0,0.5,0.1c0.1,0.2,0.1,0.5,0.1,0.6c-0.3,0.7-0.7,1.5-1.1,2.2c-0.9,1.6-1.7,3.3-2.6,4.9
		c-1,1.9-2,3.7-2.9,5.5C80,30.7,80,31.1,79.6,31"/>
	<path class="st1" d="M63.7,26c0.2-0.2,0.3-0.3,0.4-0.4c2-1.3,4.1-2.6,6.1-4c0.4-0.2,0.8-0.4,1.1-0.7c0.7-0.6,1.5-0.3,2.2-0.1
		c0.2,0.1,0.3,0.3,0.4,0.5c0.4,1.1,0.7,2.3,1.1,3.4c0.5,1.7,1.1,3.3,1.6,5c0.1,0.2,0.1,0.4,0.1,0.5c0.4,1,0.3,1.1-0.5,1.7
		c-0.1,0.1-0.4,0.1-0.6,0c-1.3-0.6-2.6-1.2-3.9-1.9c-1.3-0.6-2.6-1.2-3.9-1.8c-1.3-0.6-2.5-1.2-3.8-1.8C63.9,26.4,63.9,26.2,63.7,26
		"/>
	<path class="st1" d="M84.7,37.7c-1-0.7-2-1.5-3-2.2c0.7-1.2,0.2-2.2-0.3-3.2c-0.1-0.2-0.1-0.5,0-0.7c0.8-1.6,1.7-3.2,2.5-4.8
		c0.9-1.6,1.7-3.3,2.6-4.9c0.4-0.8,0.8-1.6,1.3-2.4c1.4,2.9,1.6,5.8,1.3,8.8C88.7,31.7,86.9,34.8,84.7,37.7"/>
	<path class="st1" d="M75.4,34c-0.1,1-0.1,1-1.3,1.3c-1.2,0.4-2.3,0.8-3.5,1.2c-1.9,0.7-3.8,1.4-5.7,2c-0.1,0-0.1,0.1-0.2,0
		c-0.5-0.3-1.1-0.5-1.5-0.9c-0.2-0.2-0.1-0.7-0.2-1c-0.1-1.1-0.2-2.2-0.3-3.3c-0.1-1-0.2-2-0.2-3.1c0-0.3-0.1-0.6-0.1-0.9
		c-0.1-0.5-0.1-0.9,0.4-1.2c0.2-0.1,0.4-0.2,0.6,0c1.1,0.5,2.2,1,3.3,1.5c1.4,0.6,2.7,1.3,4.1,1.9c1,0.5,2.1,1,3.1,1.4
		c0.3,0.2,0.7,0.3,1,0.5C75.2,33.6,75.3,33.8,75.4,34"/>
	<path class="st1" d="M62.4,24.3c0.3-4.9,0.5-9.5,0.8-14.3c0.6,0.5,1.1,0.9,1.6,1.4c2.1,1.9,4.2,3.8,6.3,5.7
		c0.2,0.2,0.3,0.4,0.2,0.7c0,0,0,0,0,0.1c0.3,1.5-1,1.8-1.8,2.3c-1.1,0.8-2.4,1.5-3.5,2.2c-0.9,0.6-1.8,1.2-2.7,1.7
		C63.1,24.2,62.8,24.2,62.4,24.3"/>
	<path class="st1" d="M51.6,31.9c1.3-0.7,2.6-1.3,3.9-1.9c1.3-0.6,2.5-1.2,3.8-1.8c0.3-0.1,0.4,0,0.6,0.1c0.7,0.3,1,0.7,1,1.5
		c0.1,2.3,0.3,4.7,0.5,7c0,0.4,0.1,0.7,0.1,1.1c0,0.4-0.2,0.5-0.5,0.3c-2-1.3-4.1-2.7-6.1-4.1C53.9,33.4,52.8,32.7,51.6,31.9"/>
	<path class="st1" d="M64.3,8.6c3.8-0.9,7.5-0.9,11.3,0.1c-0.6,2.4-1.3,4.8-1.9,7.1c-0.7,0.4-1.1,0.2-1.6-0.3
		c-2.4-2.2-4.9-4.4-7.3-6.6C64.5,8.9,64.5,8.8,64.3,8.6"/>
	<path class="st1" d="M85.6,15.4c-1.2,0.2-2.3,0.4-3.4,0.6c-1.5,0.3-3,0.5-4.4,0.8c-0.5,0.1-0.9,0.2-1.4,0.3c-0.7,0.1-1.1-0.3-1-0.9
		c0.3-1.1,0.6-2.2,0.8-3.3c0.3-1.1,0.6-2.1,0.8-3.2c0.1-0.4,0.3-0.4,0.6-0.3c1.7,0.8,3.4,1.6,4.9,2.9c1,0.8,1.8,1.8,2.8,2.7
		C85.3,15,85.4,15.2,85.6,15.4"/>
	<path class="st1" d="M69.9,56.5c-1.5,0-3.1,0-4.6,0c-1,0-1.9-0.2-2.9-0.3c-0.7-0.1-1.2-0.8-1-1.5c0.1-0.7,0.8-1.1,1.5-1
		c1.3,0.2,2.5,0.3,3.8,0.4c1.4,0.1,2.8,0.1,4.3,0.1c1.4,0,2.7-0.1,4.1-0.2c0.5,0,1-0.1,1.5-0.2c0.7-0.1,1.4,0.3,1.5,0.9
		c0.1,0.8-0.4,1.5-1.1,1.6c-2.3,0.2-4.7,0.4-7,0.6C69.9,56.7,69.9,56.6,69.9,56.5"/>
	<path class="st1" d="M50.6,22.1c0.7,0.3,1.4,0.6,2,0.9c1.8,0.9,3.7,1.7,5.5,2.6c0.2,0.1,0.4,0.2,0.6,0.3c0.2,0.1,0.2,0.5-0.1,0.7
		c-0.7,0.3-1.4,0.7-2,1c-1.3,0.6-2.6,1.2-3.8,1.8c-0.6,0.3-1.1,0.6-1.7,0.8c-0.2,0.1-0.5,0.2-0.6-0.2c-0.2-1.2-0.4-2.4-0.5-3.6
		C50.1,25,50.3,23.6,50.6,22.1"/>
	<path class="st1" d="M69.9,60.1c-1.7-0.1-3.4-0.2-5.1-0.3c-0.6,0-1.1-0.2-1.4-0.9c-0.2-0.7,0.3-1.5,1-1.5c1.4,0,2.7,0.1,4.1,0.1
		c0.8,0,1.6,0,2.4,0c0,0,0.1,0,0.1,0c1.3,0,2.6-0.1,3.8-0.1c0.6,0,1.1,0.4,1.1,0.9c0.1,0.8-0.1,1.4-0.8,1.5
		c-0.9,0.2-1.8,0.3-2.7,0.3C71.6,60.1,70.7,60,69.9,60.1C69.9,60.1,69.9,60.1,69.9,60.1"/>
	<path class="st1" d="M59.5,44.8c-2.3-3.3-4.5-6.6-6.7-9.9c0,0,0.1-0.1,0.1-0.1c2,1.3,3.9,2.7,5.9,4c0.4,0.3,0.9,0.5,1.3,0.8
		c0.1,0.1,0.3,0.3,0.3,0.4c0.2,0.5,0.3,1,0.5,1.5c0,0.1,0,0.2,0,0.2C60.4,42.7,59.9,43.8,59.5,44.8"/>
	<path class="st1" d="M66.9,60.9c0.4,0,0.7,0.1,1,0.1c1.3,0,2.5,0,3.8,0c0.1,0,0.1,0,0.2,0c0.2,0,0.4,0,0.7,0
		c-0.1,0.2-0.1,0.5-0.2,0.7c-0.6,1.1-2.1,1.6-3.4,1.3C67.9,62.6,67.3,62,66.9,60.9"/>
	<path class="st1" d="M48.8,16.4c0,0.7-0.5,1.2-1.2,1.2c-0.7,0-1.2-0.5-1.2-1.2c0-0.7,0.5-1.2,1.2-1.2
		C48.2,15.2,48.8,15.7,48.8,16.4"/>
	<path class="st1" d="M95.4,20.8c0,1.3-1.1,2.4-2.4,2.4c-1.3,0-2.4-1.1-2.4-2.4c0-1.3,1.1-2.4,2.4-2.4
		C94.3,18.4,95.4,19.5,95.4,20.8"/>
	<path class="st1" d="M79.3,6.3c0,0.3-0.3,0.6-0.6,0.6c-0.3,0-0.6-0.3-0.6-0.6c0-0.3,0.3-0.6,0.6-0.6C79,5.7,79.3,5.9,79.3,6.3"/>
	<path class="st1" d="M52.8,39c0,0.7-0.6,1.3-1.3,1.3c-0.7,0-1.3-0.6-1.3-1.3c0-0.7,0.6-1.3,1.3-1.3C52.2,37.7,52.8,38.2,52.8,39"/>
	<path class="st1" d="M86.8,42.4c0,0.4-0.3,0.6-0.6,0.6c-0.4,0-0.6-0.3-0.6-0.6c0-0.4,0.3-0.6,0.6-0.6C86.5,41.7,86.8,42,86.8,42.4"
		/>
</g>
<g>
	<path class="st1" d="M9.3,69.4c0-0.2,0.1-0.3,0.3-0.3h3.7c0.2,0,0.3,0.1,0.3,0.3v19.4c0,0.2-0.1,0.3-0.3,0.3H9.6
		c-0.2,0-0.3-0.1-0.3-0.3V69.4z"/>
	<path class="st1" d="M16.7,69.4c0-0.2,0.1-0.3,0.3-0.3h3.5c0.2,0,0.4,0.1,0.5,0.3L28.1,82h0.1V69.4c0-0.2,0.1-0.3,0.3-0.3h3.3
		c0.2,0,0.3,0.1,0.3,0.3v19.4c0,0.2-0.1,0.3-0.3,0.3h-3.5c-0.2,0-0.4-0.1-0.5-0.3l-7.1-12.5h-0.1v12.5c0,0.2-0.1,0.3-0.3,0.3H17
		c-0.2,0-0.3-0.1-0.3-0.3V69.4z"/>
	<path class="st1" d="M35.3,69.4c0-0.2,0.1-0.3,0.3-0.3h3.5c0.2,0,0.4,0.1,0.5,0.3L46.6,82h0.1V69.4c0-0.2,0.1-0.3,0.3-0.3h3.3
		c0.2,0,0.3,0.1,0.3,0.3v19.4c0,0.2-0.1,0.3-0.3,0.3h-3.5c-0.2,0-0.4-0.1-0.5-0.3l-7.1-12.5h-0.1v12.5c0,0.2-0.1,0.3-0.3,0.3h-3.3
		c-0.2,0-0.3-0.1-0.3-0.3V69.4z"/>
	<path class="st1" d="M53.2,79.1c0-2.5,0.2-4.3,0.6-5.5c1-3.2,3.7-4.8,7.3-4.8c3.6,0,6.3,1.7,7.3,4.8c0.4,1.2,0.6,3,0.6,5.5
		c0,2.5-0.2,4.3-0.6,5.5c-1,3.2-3.7,4.8-7.3,4.8c-3.6,0-6.3-1.7-7.3-4.8C53.4,83.4,53.2,81.6,53.2,79.1 M64.6,79.1
		c0-2.2-0.1-3.6-0.3-4.3c-0.5-1.5-1.5-2.2-3.1-2.2c-1.6,0-2.7,0.7-3.1,2.2c-0.2,0.6-0.3,2.1-0.3,4.3s0.1,3.6,0.3,4.3
		c0.5,1.5,1.5,2.2,3.1,2.2c1.6,0,2.7-0.7,3.1-2.2C64.4,82.8,64.6,81.3,64.6,79.1"/>
	<path class="st1" d="M76.7,89.1c-0.2,0-0.3-0.1-0.4-0.3L70,69.4c-0.1-0.2,0-0.3,0.3-0.3h3.8c0.2,0,0.3,0.1,0.4,0.3l4,13.1h0.1
		l3.9-13.1c0.1-0.2,0.2-0.3,0.4-0.3h3.8c0.2,0,0.3,0.1,0.2,0.3l-6.3,19.4c-0.1,0.2-0.2,0.3-0.4,0.3H76.7z"/>
	<path class="st1" d="M92.5,69.4c0.1-0.2,0.2-0.3,0.4-0.3h3.7c0.2,0,0.3,0.1,0.4,0.3l6.8,19.4c0.1,0.2,0,0.3-0.2,0.3h-3.8
		c-0.2,0-0.3-0.1-0.4-0.3l-1.1-3.5h-7l-1.1,3.5c-0.1,0.2-0.2,0.3-0.4,0.3h-3.9c-0.2,0-0.3-0.1-0.2-0.3L92.5,69.4z M92.4,81.6H97
		l-2.3-7h-0.1L92.4,81.6z"/>
	<path class="st1" d="M107.8,89.1c-0.2,0-0.3-0.1-0.3-0.3V73.1c0-0.1-0.1-0.2-0.2-0.2h-5.1c-0.2,0-0.3-0.1-0.3-0.3v-3.3
		c0-0.2,0.1-0.3,0.3-0.3H117c0.2,0,0.3,0.1,0.3,0.3v3.3c0,0.2-0.1,0.3-0.3,0.3H112c-0.1,0-0.2,0.1-0.2,0.2v15.7
		c0,0.2-0.1,0.3-0.3,0.3H107.8z"/>
	<path class="st1" d="M119,69.4c0-0.2,0.1-0.3,0.3-0.3h12.8c0.2,0,0.3,0.1,0.3,0.3v3.1c0,0.2-0.1,0.3-0.3,0.3h-8.6
		c-0.1,0-0.2,0.1-0.2,0.2v4c0,0.1,0.1,0.2,0.2,0.2h7.2c0.2,0,0.3,0.1,0.3,0.3v3.1c0,0.2-0.1,0.3-0.3,0.3h-7.2
		c-0.1,0-0.2,0.1-0.2,0.2v4.1c0,0.1,0.1,0.2,0.2,0.2h8.6c0.2,0,0.3,0.1,0.3,0.3v3.1c0,0.2-0.1,0.3-0.3,0.3h-12.8
		c-0.2,0-0.3-0.1-0.3-0.3V69.4z"/>
</g>
<g>
	<path class="st1" d="M33.1,92.4h2.6c0.5,0,1,0,1.4,0.1c0.5,0.1,0.9,0.2,1.3,0.4c0.4,0.2,0.7,0.5,0.9,0.8c0.2,0.4,0.4,0.9,0.4,1.5
		c0,0.7-0.2,1.3-0.7,1.8c-0.4,0.5-1.1,0.7-1.8,0.9l2.8,4.6h-1.5l-2.7-4.5h-1.5v4.5h-1.2V92.4z M34.2,96.8h1.1c0.3,0,0.7,0,1,0
		c0.4,0,0.7-0.1,1-0.2c0.3-0.1,0.5-0.3,0.7-0.5c0.2-0.2,0.3-0.5,0.3-1c0-0.4-0.1-0.6-0.2-0.9c-0.1-0.2-0.3-0.4-0.6-0.5
		c-0.2-0.1-0.5-0.2-0.8-0.2c-0.3,0-0.6-0.1-0.9-0.1h-1.7V96.8z"/>
	<polygon class="st1" points="43.1,92.4 44.4,92.4 46.7,100.7 46.7,100.7 49.1,92.4 50.5,92.4 52.9,100.7 52.9,100.7 55.2,92.4 
		56.5,92.4 53.6,102.4 52.3,102.4 49.8,93.9 49.8,93.9 47.3,102.4 46,102.4 	"/>
	<path class="st1" d="M63.5,92.4h1.1l4.2,10h-1.4l-1-2.5h-5l-1,2.5h-1.3L63.5,92.4z M64.1,93.9L64.1,93.9L62,98.8H66L64.1,93.9z"/>
	<polygon class="st1" points="73,92.4 74.5,92.4 80.3,100.7 80.3,100.7 80.3,92.4 81.5,92.4 81.5,102.4 80,102.4 74.3,94.1 
		74.2,94.1 74.2,102.4 73,102.4 	"/>
	<path class="st1" d="M86.6,92.4h3.8c0.3,0,0.7,0,1,0.1c0.4,0.1,0.7,0.2,1.1,0.4c0.4,0.2,0.7,0.4,1,0.6c0.3,0.3,0.6,0.6,0.9,1
		c0.3,0.4,0.5,0.8,0.6,1.3c0.2,0.5,0.2,1,0.2,1.6c0,0.6-0.1,1.2-0.2,1.6c-0.2,0.5-0.4,0.9-0.6,1.3c-0.3,0.4-0.5,0.7-0.9,1
		c-0.3,0.3-0.7,0.5-1,0.6c-0.4,0.2-0.7,0.3-1.1,0.4c-0.4,0.1-0.7,0.1-1,0.1h-3.8V92.4z M87.8,101.3h2.3c0.6,0,1.1-0.1,1.6-0.2
		c0.5-0.2,0.9-0.4,1.3-0.7c0.4-0.3,0.6-0.7,0.8-1.2c0.2-0.5,0.3-1.1,0.3-1.8c0-0.7-0.1-1.3-0.3-1.8c-0.2-0.5-0.5-0.9-0.8-1.2
		c-0.4-0.3-0.8-0.5-1.3-0.7c-0.5-0.1-1-0.2-1.6-0.2h-2.3V101.3z"/>
	<path class="st1" d="M103.3,92.4h1.1l4.2,10h-1.4l-1-2.5h-5l-1,2.5h-1.3L103.3,92.4z M103.9,93.9L103.9,93.9l-2.1,4.9h4.1
		L103.9,93.9z"/>
</g>
</svg>
