<?xml version="1.0" encoding="utf-8"?>
<!-- Generator: Adobe Illustrator 24.0.1, SVG Export Plug-In . SVG Version: 6.00 Build 0)  -->
<svg version="1.1" id="Layer_1" xmlns="http://www.w3.org/2000/svg" xmlns:xlink="http://www.w3.org/1999/xlink" x="0px" y="0px"
	 viewBox="0 0 200 73.6" style="enable-background:new 0 0 200 73.6;" xml:space="preserve">
<style type="text/css">
	.st0{fill:#FFFFFF;}
	.st1{fill:#1C2A58;}
	.st2{fill:#00ADEE;}
	.st3{fill:#6ECEF0;}
	.st4{fill:#6D6E70;}
</style>
<rect x="0" y="0" class="st0" width="200" height="73.6"/>
<g>
	<path class="st1" d="M40.9,40c-2.7,3.7-5.1,7.5-6,12.2c-1-0.7-1.9-1.4-2.9-2.2c-1.6-1.2-3.1-2.4-4.7-3.5c-1.5-1.2-3.1-2.4-4.6-3.5
		c-0.2-0.1-0.4-0.3-0.6-0.4c-0.5-0.2-0.5-0.6-0.4-1c0-0.2,0.2-0.4,0.3-0.4c1.1-0.4,2.2-0.8,3.3-1.2c1.2-0.4,2.4-0.8,3.6-1.2
		c1.1-0.4,2.2-0.8,3.3-1.2c0.4-0.1,0.7-0.2,1.1,0.1c1.2,1.1,2.7,1.2,4.2,0.4c0.1-0.1,0.4-0.1,0.6,0c0.5,0.3,0.9,0.6,1.4,1
		C39.9,39.3,40.3,39.6,40.9,40"/>
	<path class="st2" d="M7.2,20.9c1.9-5.3,5.5-9,10.8-11.3c-0.1,2.1-0.2,4.1-0.4,6c0,0.3-0.1,0.7-0.1,1c-0.1,2.5-0.2,5-0.4,7.5
		c0,0.1-0.1,0.3-0.3,0.4c-0.3,0.2-0.6,0.3-0.8,0.5C13.1,23.7,10.1,22.3,7.2,20.9"/>
	<path class="st1" d="M32.8,52.9c-5.1,0.7-10,0.5-14.9-0.3c-0.5-1.5-1-2.9-1.4-4.4c-0.1-0.3,0.1-0.6,0.3-0.9
		c0.5-1.2,1.1-2.4,1.6-3.5c0-0.1,0.1-0.1,0.1-0.1c0.1,0,0.3-0.1,0.4-0.1c0.6,0.2,1.1-0.5,1.8,0c1.7,1.4,3.5,2.8,5.3,4.1
		c2.2,1.6,4.3,3.3,6.5,4.9C32.7,52.7,32.8,52.8,32.8,52.9"/>
	<path class="st2" d="M36.5,31.8c-0.7,0-1-0.3-1.2-1.2c-0.3-1-0.6-2-0.9-2.9c-0.5-1.6-1-3.1-1.5-4.7c-0.2-0.6-0.4-1.2-0.6-1.8
		c-0.1-0.3-0.2-0.6,0.1-0.9c0,0,0.1-0.1,0.1-0.1c0.2-1.2,1.3-1,2.1-1.2c1.2-0.3,2.4-0.4,3.6-0.6c1.5-0.3,3.1-0.5,4.6-0.8
		c0.2,0,0.4-0.1,0.7-0.1c0.2,0,0.5,0,0.6,0.1c0.1,0.2,0.1,0.5,0.1,0.7c-0.4,0.8-0.8,1.5-1.2,2.3c-0.9,1.7-1.8,3.4-2.7,5.1
		c-1,1.9-2,3.8-3,5.7C36.9,31.5,36.9,31.9,36.5,31.8"/>
	<path class="st2" d="M20.2,26.6c0.2-0.2,0.3-0.4,0.4-0.5c2.1-1.4,4.2-2.7,6.3-4.1c0.4-0.2,0.8-0.4,1.1-0.7c0.7-0.7,1.5-0.4,2.3-0.1
		c0.2,0.1,0.3,0.3,0.4,0.5c0.4,1.2,0.7,2.3,1.1,3.5c0.6,1.7,1.1,3.4,1.7,5.2c0.1,0.2,0.1,0.4,0.1,0.6c0.4,1,0.4,1.2-0.5,1.8
		c-0.1,0.1-0.5,0.1-0.6,0c-1.4-0.6-2.7-1.3-4.1-1.9c-1.3-0.6-2.7-1.3-4-1.9c-1.3-0.6-2.6-1.2-3.9-1.8C20.3,27.1,20.3,26.9,20.2,26.6
		"/>
	<path class="st2" d="M41.8,38.6c-1-0.8-2-1.5-3.1-2.3c0.7-1.2,0.2-2.3-0.4-3.3c-0.1-0.2-0.1-0.5,0-0.8c0.9-1.7,1.7-3.3,2.6-5
		c0.9-1.7,1.7-3.4,2.6-5c0.4-0.8,0.9-1.6,1.3-2.5c1.4,2.9,1.7,6,1.3,9.1C45.9,32.5,44,35.7,41.8,38.6"/>
	<path class="st1" d="M32.2,34.9c-0.1,1-0.1,1-1.3,1.4c-1.2,0.4-2.4,0.8-3.6,1.2c-2,0.7-3.9,1.4-5.9,2.1c-0.1,0-0.1,0.1-0.2,0
		c-0.5-0.3-1.1-0.6-1.5-1c-0.2-0.2-0.1-0.7-0.2-1c-0.1-1.1-0.2-2.3-0.3-3.4c-0.1-1.1-0.2-2.1-0.3-3.2c0-0.3-0.1-0.6-0.1-0.9
		c-0.1-0.5-0.1-1,0.5-1.3c0.3-0.1,0.4-0.2,0.7,0c1.1,0.5,2.2,1.1,3.4,1.6c1.4,0.7,2.8,1.3,4.2,2c1.1,0.5,2.1,1,3.2,1.5
		c0.3,0.2,0.7,0.3,1,0.5C32,34.4,32.1,34.7,32.2,34.9"/>
	<path class="st2" d="M18.8,24.9c0.3-5,0.5-9.8,0.8-14.7c0.6,0.5,1.1,0.9,1.7,1.4c2.2,1.9,4.3,3.9,6.5,5.8c0.2,0.2,0.4,0.4,0.2,0.7
		c0,0,0,0,0,0.1c0.3,1.5-1,1.8-1.9,2.4c-1.2,0.8-2.4,1.5-3.6,2.3c-0.9,0.6-1.8,1.2-2.8,1.8C19.5,24.8,19.2,24.8,18.8,24.9"/>
	<path class="st1" d="M7.7,32.7c1.4-0.7,2.7-1.4,4-2c1.3-0.6,2.6-1.2,3.9-1.8c0.3-0.1,0.4,0,0.6,0.1c0.8,0.3,1,0.8,1.1,1.6
		c0.1,2.4,0.4,4.8,0.5,7.2c0,0.4,0.1,0.7,0.1,1.1c0,0.4-0.2,0.5-0.6,0.3c-2.1-1.4-4.2-2.8-6.3-4.2C10,34.3,8.9,33.5,7.7,32.7"/>
	<path class="st3" d="M20.7,8.7c3.9-0.9,7.7-0.9,11.6,0.1c-0.7,2.5-1.3,4.9-2,7.3c-0.7,0.5-1.1,0.2-1.7-0.3c-2.5-2.3-5-4.5-7.5-6.8
		C21,9.1,20.9,8.9,20.7,8.7"/>
	<path class="st3" d="M42.6,15.7c-1.3,0.2-2.4,0.5-3.6,0.7c-1.5,0.3-3.1,0.5-4.6,0.8c-0.5,0.1-0.9,0.2-1.4,0.3c-0.7,0.1-1.2-0.3-1-1
		c0.3-1.1,0.6-2.3,0.9-3.4c0.3-1.1,0.6-2.2,0.9-3.3c0.1-0.4,0.3-0.5,0.6-0.3c1.8,0.8,3.5,1.6,5,2.9c1,0.9,1.9,1.8,2.8,2.8
		C42.4,15.4,42.5,15.5,42.6,15.7"/>
	<path class="st1" d="M26.5,58.1c-1.6,0-3.2,0-4.7,0c-1,0-2-0.2-3-0.3c-0.7-0.1-1.2-0.8-1.1-1.5c0.1-0.7,0.8-1.2,1.5-1.1
		c1.3,0.2,2.6,0.3,3.9,0.4c1.5,0.1,2.9,0.1,4.4,0.1c1.4,0,2.8-0.1,4.2-0.2c0.5,0,1.1-0.2,1.6-0.2c0.7-0.1,1.4,0.3,1.5,0.9
		c0.1,0.8-0.4,1.6-1.1,1.6c-2.4,0.2-4.8,0.4-7.2,0.6C26.5,58.3,26.5,58.2,26.5,58.1"/>
	<path class="st1" d="M6.7,22.6c0.8,0.4,1.4,0.7,2.1,1c1.9,0.9,3.8,1.8,5.7,2.7c0.2,0.1,0.4,0.2,0.7,0.3c0.2,0.1,0.2,0.5-0.1,0.7
		c-0.7,0.4-1.4,0.7-2.1,1c-1.3,0.6-2.6,1.3-4,1.9c-0.6,0.3-1.1,0.6-1.7,0.9c-0.2,0.1-0.5,0.2-0.6-0.2c-0.2-1.3-0.4-2.5-0.5-3.8
		C6.1,25.6,6.3,24.1,6.7,22.6"/>
	<path class="st1" d="M26.5,61.8c-1.7-0.1-3.5-0.2-5.2-0.3c-0.6,0-1.2-0.2-1.4-1c-0.2-0.7,0.3-1.6,1-1.6c1.4,0,2.8,0.1,4.2,0.1
		c0.8,0,1.6,0,2.5,0c0,0,0.1,0,0.1,0c1.3,0,2.6-0.1,4-0.1c0.6,0,1.1,0.4,1.2,0.9c0.1,0.8-0.1,1.4-0.8,1.5c-0.9,0.2-1.9,0.3-2.8,0.3
		C28.3,61.7,27.4,61.7,26.5,61.8C26.5,61.7,26.5,61.7,26.5,61.8"/>
	<path class="st1" d="M15.8,46c-2.3-3.4-4.6-6.8-6.9-10.2c0.1,0,0.1-0.1,0.2-0.1c2,1.4,4.1,2.8,6.1,4.1c0.4,0.3,0.9,0.5,1.3,0.8
		c0.1,0.1,0.3,0.3,0.3,0.4c0.2,0.5,0.3,1,0.5,1.6c0,0.1,0,0.2,0,0.2C16.7,43.9,16.2,44.9,15.8,46"/>
	<path class="st1" d="M23.4,62.6c0.4,0,0.7,0.1,1,0.1c1.3,0,2.6,0,3.9,0c0.1,0,0.1,0,0.2,0c0.2,0,0.5,0,0.7,0
		c-0.1,0.2-0.1,0.5-0.2,0.7c-0.6,1.1-2.2,1.7-3.5,1.3C24.5,64.4,23.8,63.7,23.4,62.6"/>
	<path class="st2" d="M4.7,16.7c0,0.7-0.6,1.3-1.3,1.3c-0.7,0-1.3-0.6-1.3-1.3c0-0.7,0.6-1.3,1.3-1.3C4.2,15.5,4.7,16,4.7,16.7"/>
	<path class="st3" d="M52.8,21.3c0,1.4-1.1,2.5-2.5,2.5c-1.4,0-2.5-1.1-2.5-2.5c0-1.4,1.1-2.5,2.5-2.5
		C51.7,18.8,52.8,19.9,52.8,21.3"/>
	<path class="st3" d="M36.2,6.3c0,0.4-0.3,0.6-0.6,0.6c-0.4,0-0.6-0.3-0.6-0.6c0-0.4,0.3-0.6,0.6-0.6C35.9,5.7,36.2,6,36.2,6.3"/>
	<path class="st1" d="M8.9,40c0,0.7-0.6,1.3-1.3,1.3S6.2,40.7,6.2,40c0-0.7,0.6-1.3,1.3-1.3S8.9,39.2,8.9,40"/>
	<path class="st1" d="M43.9,43.5c0,0.4-0.3,0.7-0.7,0.7c-0.4,0-0.7-0.3-0.7-0.7c0-0.4,0.3-0.7,0.7-0.7
		C43.7,42.8,43.9,43.1,43.9,43.5"/>
</g>
<path class="st1" d="M63.3,24c0-0.2,0.1-0.3,0.3-0.3h3.8c0.2,0,0.3,0.1,0.3,0.3v20c0,0.2-0.1,0.3-0.3,0.3h-3.8
	c-0.2,0-0.3-0.1-0.3-0.3V24z"/>
<path class="st1" d="M70.9,24c0-0.2,0.1-0.3,0.3-0.3h3.6c0.2,0,0.4,0.1,0.5,0.3l7.3,13h0.2V24c0-0.2,0.1-0.3,0.3-0.3h3.4
	c0.2,0,0.3,0.1,0.3,0.3v20c0,0.2-0.1,0.3-0.3,0.3h-3.6c-0.2,0-0.4-0.1-0.5-0.3L75.1,31h-0.2v12.9c0,0.2-0.1,0.3-0.3,0.3h-3.4
	c-0.2,0-0.3-0.1-0.3-0.3V24z"/>
<path class="st1" d="M90,24c0-0.2,0.1-0.3,0.3-0.3h3.6c0.2,0,0.4,0.1,0.5,0.3l7.3,13h0.2V24c0-0.2,0.1-0.3,0.3-0.3h3.4
	c0.2,0,0.3,0.1,0.3,0.3v20c0,0.2-0.1,0.3-0.3,0.3h-3.6c-0.2,0-0.4-0.1-0.5-0.3L94.1,31H94v12.9c0,0.2-0.1,0.3-0.3,0.3h-3.4
	c-0.2,0-0.3-0.1-0.3-0.3V24z"/>
<path class="st1" d="M108.5,33.9c0-2.5,0.2-4.4,0.6-5.6c1.1-3.3,3.8-5,7.5-5c3.7,0,6.4,1.7,7.5,5c0.4,1.2,0.6,3.1,0.6,5.6
	c0,2.5-0.2,4.4-0.6,5.6c-1.1,3.3-3.8,5-7.5,5c-3.7,0-6.4-1.7-7.5-5C108.7,38.4,108.5,36.5,108.5,33.9 M120.1,33.9
	c0-2.3-0.1-3.8-0.3-4.4c-0.5-1.5-1.6-2.3-3.2-2.3c-1.7,0-2.8,0.8-3.2,2.3c-0.2,0.7-0.3,2.1-0.3,4.4c0,2.3,0.1,3.8,0.3,4.4
	c0.5,1.5,1.6,2.3,3.2,2.3c1.7,0,2.8-0.8,3.2-2.3C120,37.7,120.1,36.2,120.1,33.9"/>
<path class="st1" d="M132.7,44.2c-0.2,0-0.3-0.1-0.4-0.3L125.7,24c-0.1-0.2,0-0.3,0.3-0.3h3.9c0.2,0,0.3,0.1,0.4,0.3l4.1,13.5h0.1
	l4-13.5c0.1-0.2,0.2-0.3,0.4-0.3h3.9c0.2,0,0.3,0.1,0.2,0.3l-6.5,19.9c-0.1,0.2-0.2,0.3-0.4,0.3H132.7z"/>
<path class="st1" d="M149,24c0.1-0.2,0.2-0.3,0.4-0.3h3.8c0.2,0,0.3,0.1,0.4,0.3l7,20c0.1,0.2,0,0.3-0.2,0.3h-3.9
	c-0.2,0-0.3-0.1-0.4-0.3l-1.2-3.6h-7.2l-1.1,3.6c-0.1,0.2-0.2,0.3-0.4,0.3h-4c-0.2,0-0.3-0.1-0.2-0.3L149,24z M148.8,36.6h4.8
	l-2.3-7.2h-0.1L148.8,36.6z"/>
<path class="st1" d="M164.7,44.2c-0.2,0-0.3-0.1-0.3-0.3V27.8c0-0.1-0.1-0.2-0.2-0.2H159c-0.2,0-0.3-0.1-0.3-0.3V24
	c0-0.2,0.1-0.3,0.3-0.3h15.2c0.2,0,0.3,0.1,0.3,0.3v3.4c0,0.2-0.1,0.3-0.3,0.3H169c-0.1,0-0.2,0.1-0.2,0.2v16.1
	c0,0.2-0.1,0.3-0.3,0.3H164.7z"/>
<path class="st1" d="M176.2,24c0-0.2,0.1-0.3,0.3-0.3h13.2c0.2,0,0.3,0.1,0.3,0.3v3.2c0,0.2-0.1,0.3-0.3,0.3h-8.9
	c-0.1,0-0.2,0.1-0.2,0.2v4.1c0,0.1,0.1,0.2,0.2,0.2h7.4c0.2,0,0.3,0.1,0.3,0.3v3.2c0,0.2-0.1,0.3-0.3,0.3h-7.4
	c-0.1,0-0.2,0.1-0.2,0.2v4.3c0,0.1,0.1,0.2,0.2,0.2h8.9c0.2,0,0.3,0.1,0.3,0.3v3.2c0,0.2-0.1,0.3-0.3,0.3h-13.2
	c-0.2,0-0.3-0.1-0.3-0.3V24z"/>
<path class="st4" d="M86.1,47.6h2.6c0.5,0,1,0,1.5,0.1c0.5,0.1,0.9,0.2,1.3,0.4c0.4,0.2,0.7,0.5,0.9,0.8c0.2,0.4,0.4,0.9,0.4,1.5
	c0,0.8-0.2,1.4-0.7,1.8c-0.5,0.5-1.1,0.8-1.9,0.9l2.9,4.7h-1.5l-2.8-4.6h-1.6v4.6h-1.2V47.6z M87.4,52.2h1.1c0.3,0,0.7,0,1.1,0
	c0.4,0,0.7-0.1,1-0.2c0.3-0.1,0.6-0.3,0.8-0.5c0.2-0.2,0.3-0.6,0.3-1c0-0.4-0.1-0.7-0.2-0.9c-0.1-0.2-0.3-0.4-0.6-0.5
	c-0.2-0.1-0.5-0.2-0.8-0.2s-0.6-0.1-0.9-0.1h-1.7V52.2z"/>
<polygon class="st4" points="96.5,47.6 97.8,47.6 100.1,56.2 100.2,56.2 102.7,47.6 104.1,47.6 106.6,56.2 106.6,56.2 109,47.6 
	110.3,47.6 107.3,57.9 105.9,57.9 103.4,49.2 103.4,49.2 100.8,57.9 99.5,57.9 "/>
<path class="st4" d="M117.5,47.6h1.1l4.4,10.3h-1.4l-1-2.5h-5.1l-1.1,2.5H113L117.5,47.6z M118.1,49.2L118.1,49.2l-2.2,5.1h4.2
	L118.1,49.2z"/>
<polygon class="st4" points="127.3,47.6 128.9,47.6 134.8,56.2 134.8,56.2 134.8,47.6 136.1,47.6 136.1,57.9 134.5,57.9 128.6,49.4 
	128.5,49.4 128.5,57.9 127.3,57.9 "/>
<path class="st4" d="M141.3,47.6h4c0.3,0,0.7,0,1.1,0.1c0.4,0.1,0.8,0.2,1.1,0.4c0.4,0.2,0.7,0.4,1.1,0.7c0.3,0.3,0.6,0.6,0.9,1
	c0.3,0.4,0.5,0.8,0.6,1.3c0.2,0.5,0.2,1.1,0.2,1.7c0,0.6-0.1,1.2-0.2,1.7c-0.2,0.5-0.4,0.9-0.6,1.3c-0.3,0.4-0.6,0.7-0.9,1
	c-0.3,0.3-0.7,0.5-1.1,0.7c-0.4,0.2-0.7,0.3-1.1,0.4c-0.4,0.1-0.7,0.1-1.1,0.1h-4V47.6z M142.6,56.8h2.3c0.6,0,1.1-0.1,1.6-0.2
	c0.5-0.2,0.9-0.4,1.3-0.7c0.4-0.3,0.7-0.7,0.9-1.2c0.2-0.5,0.3-1.1,0.3-1.8c0-0.7-0.1-1.3-0.3-1.8c-0.2-0.5-0.5-0.9-0.9-1.2
	c-0.4-0.3-0.8-0.6-1.3-0.7c-0.5-0.2-1.1-0.2-1.6-0.2h-2.3V56.8z"/>
<path class="st4" d="M158.5,47.6h1.1l4.4,10.3h-1.4l-1-2.5h-5.1l-1.1,2.5H154L158.5,47.6z M159.1,49.2L159.1,49.2l-2.2,5.1h4.2
	L159.1,49.2z"/>
</svg>
