<?xml version="1.0" encoding="utf-8"?>
<!-- Generator: Adobe Illustrator 24.0.1, SVG Export Plug-In . SVG Version: 6.00 Build 0)  -->
<svg version="1.1" id="Capa_1" xmlns="http://www.w3.org/2000/svg" xmlns:xlink="http://www.w3.org/1999/xlink" x="0px" y="0px"
	 viewBox="0 0 512 512" style="enable-background:new 0 0 512 512;" xml:space="preserve">
<style type="text/css">
	.st0{fill:#FFFFFF;}
</style>
<g>
	<path class="st0" d="M379,402.1h-29.6c0-49.9-41.9-90.5-93.4-90.5s-93.4,40.6-93.4,90.5H133c0-66.3,55.2-120.1,123-120.1
		C323.8,281.9,379,335.8,379,402.1z"/>
	<path class="st0" d="M256,272.3c-44.7,0-81.2-36.4-81.2-81.2c0-44.8,36.4-81.2,81.2-81.2c44.8,0,81.2,36.4,81.2,81.2
		S300.8,272.3,256,272.3z M256,139.5c-28.4,0-51.6,23.1-51.6,51.6s23.1,51.6,51.6,51.6c28.5,0,51.6-23.1,51.6-51.6
		S284.4,139.5,256,139.5z"/>
</g>
</svg>
